<?xml version="1.0" standalone="no"?>
<!DOCTYPE svg PUBLIC "-//W3C//DTD SVG 20010904//EN"
 "http://www.w3.org/TR/2001/REC-SVG-20010904/DTD/svg10.dtd">
<svg version="1.0" xmlns="http://www.w3.org/2000/svg"
 width="500.000000pt" height="500.000000pt" viewBox="0 0 500.000000 500.000000"
 preserveAspectRatio="xMidYMid meet">
<metadata>
Created by potrace 1.16, written by Peter Selinger 2001-2019
</metadata>
<g transform="translate(0.000000,500.000000) scale(0.100000,-0.100000)"
fill="#000000" stroke="none">
<path d="M2308 4549 c5 -79 -13 -140 -53 -183 -35 -38 -52 -33 -66 17 -15 57
-37 97 -53 97 -7 0 -23 -12 -37 -26 -13 -14 -43 -39 -65 -55 -37 -25 -43 -27
-55 -13 -32 39 -165 85 -203 71 -13 -5 -13 -12 4 -49 28 -61 26 -106 -3 -119
-21 -10 -30 -4 -88 53 -39 39 -89 76 -129 96 -73 36 -300 125 -306 120 -2 -2
6 -33 17 -69 13 -43 23 -114 29 -214 9 -155 15 -187 45 -246 17 -31 17 -33 1
-20 -25 21 -63 91 -71 131 -10 50 -14 53 -34 28 -49 -63 -61 -127 -40 -208 2
-9 -4 -16 -17 -18 -29 -4 -49 44 -40 99 6 39 6 40 -16 28 -79 -40 -138 -144
-138 -243 0 -90 -17 -112 -173 -216 -93 -62 -211 -184 -239 -246 -32 -73 -35
-165 -8 -243 l21 -64 -25 -26 c-25 -26 -96 -165 -96 -187 0 -7 -16 -18 -35
-24 -19 -6 -37 -16 -40 -20 -3 -5 29 -78 72 -162 l78 -153 -5 -95 c-3 -52 -4
-160 -4 -240 1 -121 5 -155 23 -204 11 -33 20 -60 19 -61 -2 -2 -23 -13 -48
-25 l-44 -22 34 -30 c71 -60 89 -81 120 -139 23 -44 30 -67 25 -88 -8 -39 12
-118 43 -168 31 -50 92 -83 165 -91 41 -4 49 -9 62 -36 28 -58 93 -123 189
-186 73 -48 96 -69 101 -91 11 -47 102 -166 173 -224 150 -124 242 -185 277
-185 42 0 65 29 65 83 0 27 4 37 13 34 6 -3 35 -13 64 -23 46 -15 53 -22 68
-60 24 -63 87 -128 157 -163 74 -38 92 -39 85 -8 -4 12 -9 42 -13 66 -6 39 -5
43 12 37 78 -24 153 -37 262 -46 70 -6 159 -19 197 -28 39 -9 102 -16 141 -15
69 1 233 37 322 70 40 15 43 15 63 -3 15 -13 40 -20 89 -22 62 -4 74 -1 129
29 58 30 96 64 131 117 10 15 38 29 90 43 41 11 102 35 135 54 132 74 482 349
583 459 116 126 241 318 292 451 23 59 33 73 65 90 55 29 82 68 68 98 -10 21
-7 28 23 56 68 65 68 159 -1 220 -30 26 -34 34 -28 63 3 18 19 48 34 66 16 18
31 45 35 60 3 15 7 33 10 40 8 26 -18 112 -48 157 -17 26 -55 63 -85 82 -51
35 -53 37 -38 57 82 111 95 154 95 309 0 92 -18 208 -34 224 -4 4 -25 -2 -48
-14 l-42 -20 -58 129 c-31 71 -89 177 -127 236 -98 151 -102 161 -99 295 3
151 -8 184 -85 261 -66 64 -109 96 -167 121 -19 8 -46 22 -60 30 -103 61 -133
70 -235 70 -66 1 -120 7 -158 19 -43 13 -85 17 -160 15 -126 -3 -166 5 -242
46 -33 18 -91 45 -130 61 -64 26 -81 28 -200 29 -119 0 -136 -2 -195 -27 -36
-15 -86 -30 -111 -33 -46 -7 -47 -7 -58 27 -18 56 -138 178 -173 178 -2 0 -2
-32 0 -71z m106 -63 c33 -56 49 -121 41 -167 -6 -35 -13 -43 -58 -65 -67 -34
-210 -95 -214 -91 -2 2 22 37 53 78 81 107 115 183 115 259 1 60 1 61 20 44
10 -9 30 -35 43 -58z m-897 -67 c74 -35 176 -126 205 -182 24 -49 33 -124 23
-212 l-7 -67 -34 104 c-20 56 -40 108 -46 113 -8 7 -9 6 -3 -3 4 -7 0 -21 -8
-30 -9 -9 -16 -21 -16 -27 -2 -27 -27 -3 -62 58 -49 87 -145 219 -201 278
l-44 45 66 -24 c36 -13 93 -37 127 -53z m-172 -10 c8 -30 15 -63 15 -74 0 -12
41 -70 91 -130 83 -101 199 -258 199 -269 0 -10 -36 8 -94 47 -32 22 -55 34
-51 28 11 -19 -45 12 -82 45 -46 41 -63 90 -73 212 -6 59 -16 131 -24 160 -7
29 -9 49 -4 44 5 -5 15 -33 23 -63z m1622 25 c28 -8 20 -24 -10 -24 -12 0 -51
-14 -86 -30 -50 -24 -71 -29 -99 -24 l-36 7 25 20 c13 11 17 18 8 15 -69 -25
-141 -40 -151 -30 -13 13 65 60 123 72 44 9 184 5 226 -6z m-818 -41 c17 -60
13 -100 -15 -154 -24 -49 -26 -50 -44 -34 -11 10 -17 21 -14 26 2 5 -11 29
-29 55 l-35 48 54 39 c30 22 54 44 54 49 0 23 20 3 29 -29z m-237 -9 c50 -32
70 -74 70 -146 0 -75 -35 -152 -70 -154 -15 -1 -21 3 -18 12 3 7 8 28 11 47
l7 34 -43 -1 c-39 -1 -43 -4 -55 -36 -19 -54 -16 -21 7 77 20 84 21 144 3 187
-6 17 -4 18 22 12 16 -4 46 -18 66 -32z m791 -115 c37 -10 107 -63 107 -81 0
-5 -17 5 -38 22 -23 18 -60 35 -94 42 -69 14 -98 5 -343 -110 -93 -43 -181
-83 -195 -87 -13 -4 -81 -35 -150 -67 -144 -69 -318 -148 -325 -148 -2 0 -44
-19 -92 -41 -49 -23 -121 -57 -161 -75 -41 -19 -71 -38 -67 -44 3 -5 -10 -25
-29 -44 -58 -59 -65 -150 -16 -231 10 -16 33 -59 52 -95 19 -36 66 -117 103
-180 38 -63 90 -153 115 -200 26 -47 78 -137 115 -200 93 -160 146 -262 142
-274 -2 -6 -16 12 -32 39 -73 130 -152 267 -192 331 -24 39 -43 73 -43 77 0 3
-36 68 -81 144 -150 254 -229 403 -235 441 -3 20 -1 56 4 80 9 37 8 41 -4 31
-12 -10 -13 -9 -8 5 3 9 10 16 15 16 5 0 9 5 9 12 0 19 -50 -34 -72 -76 -37
-71 -24 -123 69 -283 45 -76 90 -156 101 -178 11 -22 48 -87 82 -145 35 -58
86 -148 115 -200 28 -52 88 -159 133 -237 45 -78 82 -150 82 -160 0 -12 -7 -7
-23 17 -31 45 -127 211 -187 320 -25 47 -83 148 -127 225 -198 344 -274 481
-283 516 -7 26 -7 53 0 85 20 90 61 134 175 191 74 38 331 153 340 153 3 0
106 47 228 104 122 57 260 120 307 141 47 21 146 66 220 100 165 77 204 86
283 64z m641 -1 c47 -15 106 -69 138 -130 17 -33 22 -60 22 -113 1 -86 -20
-132 -86 -196 -98 -94 -224 -92 -343 6 -48 39 -85 122 -85 188 0 42 20 119 39
155 14 27 77 73 120 88 46 17 142 17 195 2z m-602 -86 c25 -16 54 -52 89 -110
29 -48 80 -132 114 -187 102 -166 285 -473 285 -479 0 -5 127 -223 306 -522
63 -105 114 -194 114 -197 0 -6 138 -238 182 -306 15 -25 28 -48 28 -53 0 -5
48 -87 108 -183 331 -539 306 -492 306 -560 0 -70 -24 -120 -77 -159 -18 -12
-144 -78 -280 -146 -232 -115 -249 -125 -263 -159 -19 -46 -51 -72 -144 -117
-79 -39 -127 -45 -145 -20 -10 13 -43 -1 -231 -93 -288 -142 -297 -145 -386
-139 -130 8 -175 43 -277 217 -113 193 -222 381 -271 471 -25 47 -79 141 -118
209 -40 69 -72 134 -72 145 1 28 21 -5 224 -364 240 -423 333 -575 367 -604
70 -59 194 -70 294 -26 38 17 739 362 1194 588 29 15 73 45 98 67 80 73 85
160 16 271 -17 27 -80 130 -140 229 -59 99 -122 200 -139 225 -17 25 -41 65
-54 90 -14 25 -71 124 -128 220 -56 96 -107 182 -111 190 -4 8 -51 87 -103
175 -52 88 -141 238 -198 333 -56 95 -113 185 -126 199 -13 14 -21 29 -18 34
3 5 -3 6 -12 2 -12 -4 -15 -3 -10 5 5 8 2 10 -8 6 -19 -7 -21 -24 -4 -24 6 0
8 -3 4 -7 -4 -5 -13 -1 -19 8 -17 22 -65 52 -75 45 -4 -2 -35 0 -68 5 -32 5
-67 10 -76 10 -9 0 -22 7 -29 15 -6 8 -18 14 -25 14 -8 0 -14 5 -14 10 0 6
-13 10 -30 10 -20 0 -30 5 -30 15 0 8 -4 15 -9 15 -5 0 -10 -37 -9 -82 0 -47
-7 -100 -15 -123 -14 -40 -14 -40 -70 -43 -32 -2 -57 -2 -57 0 0 2 7 25 15 52
28 91 11 182 -42 236 -20 20 -23 21 -15 5 22 -42 42 -107 42 -134 0 -25 -3
-28 -25 -23 -14 2 -25 9 -25 14 0 6 -8 4 -17 -3 -11 -9 -14 -10 -9 -2 5 9 2
11 -8 7 -9 -3 -13 -11 -9 -17 4 -6 0 -8 -10 -4 -13 5 -15 -1 -11 -41 6 -57
-11 -125 -37 -148 -11 -9 -19 -21 -19 -25 0 -4 26 -18 58 -30 76 -30 201 -32
252 -5 76 40 117 96 129 175 l7 46 17 -49 c40 -116 2 -208 -108 -265 -102 -52
-214 -47 -375 19 l-95 38 -82 -43 c-46 -24 -84 -41 -87 -37 -2 4 -7 22 -11 41
-19 89 -93 190 -167 230 -24 12 -28 11 -55 -14 -15 -15 -22 -24 -15 -21 18 10
63 -1 92 -24 24 -18 24 -19 6 -33 -11 -8 -41 -22 -68 -32 l-49 -17 27 -37 c53
-71 110 -123 169 -154 53 -28 69 -32 146 -32 78 0 91 3 159 36 l73 37 41 -18
41 -18 -44 -41 c-95 -88 -229 -125 -352 -97 -102 23 -176 67 -271 160 -93 91
-135 164 -145 249 -9 82 -22 91 -23 15 0 -42 7 -86 18 -115 l18 -48 -22 -1
c-20 -2 -131 -51 -144 -64 -3 -3 -17 -6 -31 -8 -25 -3 -34 8 -106 130 -139
233 -163 281 -163 330 0 60 32 106 95 138 110 55 214 100 232 100 11 0 34 -18
51 -39 53 -65 67 -64 269 27 98 44 219 98 268 120 116 52 145 77 145 129 0 21
-7 49 -16 61 -9 13 -14 25 -12 28 3 2 63 31 134 64 117 55 134 60 185 57 35
-2 68 -11 91 -25z m1281 -14 c73 -40 134 -180 109 -248 -6 -16 -12 -8 -30 40
-13 33 -27 58 -31 56 -8 -5 -94 78 -92 88 2 10 -63 78 -84 87 -14 7 -3 8 33 5
29 -3 72 -16 95 -28z m197 -168 c32 -63 35 -121 10 -202 -20 -63 -24 -70 -31
-48 -4 14 -8 54 -8 90 -1 36 -9 104 -19 152 l-18 88 24 -23 c13 -12 32 -38 42
-57z m-328 60 c20 -6 47 -20 60 -31 20 -18 21 -20 3 -14 -45 16 -55 16 -109 5
-99 -20 -185 -97 -217 -192 -16 -48 -29 -39 -29 20 0 54 35 135 73 170 50 46
141 63 219 42z m-2747 -137 c45 -39 116 -53 279 -54 83 0 147 -2 141 -4 -168
-55 -218 -68 -270 -69 -102 -2 -176 39 -218 119 l-16 30 -1 -38 c0 -73 59
-142 149 -172 l51 -17 -24 -19 c-34 -27 -66 -24 -112 10 -46 32 -66 60 -83
114 -15 45 -3 111 31 166 l21 33 13 -38 c7 -22 25 -49 39 -61z m2892 33 c28
-23 89 -123 81 -131 -2 -3 -21 7 -41 22 -77 54 -204 39 -267 -33 -16 -19 -30
-28 -30 -21 0 8 15 29 33 47 22 23 26 31 12 25 -11 -4 -28 -8 -37 -9 -9 0 -15
-4 -12 -8 2 -4 -5 -6 -16 -5 -19 1 -19 2 4 42 51 86 207 127 273 71z m-134
-303 c35 -68 120 -99 190 -70 35 15 37 15 37 -4 0 -24 -55 -59 -92 -59 -109 0
-217 149 -177 245 l12 30 7 -55 c4 -30 14 -69 23 -87z m-314 -15 c67 -85 105
-110 202 -132 33 -8 63 -17 65 -19 6 -6 24 -230 19 -235 -2 -2 -12 1 -23 7
-16 9 -68 17 -135 21 -5 0 -5 5 -2 10 8 13 -1 13 -27 -1 -12 -7 -18 -7 -14 -1
3 6 -5 14 -20 19 -19 6 -45 43 -105 146 -43 76 -79 142 -79 147 0 6 9 10 20
10 30 0 139 -174 155 -248 4 -22 14 -34 28 -37 12 -2 53 -12 91 -20 38 -8 70
-14 71 -13 1 2 -3 38 -9 80 l-10 77 -55 12 c-31 6 -68 17 -82 25 -74 38 -145
126 -155 195 -4 24 -4 42 -2 39 3 -3 33 -40 67 -82z m-2593 14 c-31 -60 -28
-129 9 -227 4 -11 -3 -5 -16 12 -22 30 -49 48 -34 22 4 -6 1 -10 -6 -8 -27 3
-40 -1 -34 -11 3 -5 1 -10 -5 -10 -6 0 -20 16 -31 35 -22 38 -39 45 -39 18 0
-9 -3 -14 -6 -11 -12 12 18 90 49 125 31 36 117 97 125 89 2 -2 -3 -18 -12
-34z m-231 -168 c-25 -36 -45 -71 -45 -78 0 -7 -12 -41 -26 -77 -22 -54 -25
-74 -20 -122 5 -53 10 -63 51 -102 35 -34 61 -49 116 -65 50 -15 83 -33 113
-59 22 -21 50 -43 61 -50 42 -25 -49 1 -145 41 -52 22 -111 45 -130 51 -51 17
-126 94 -139 142 -27 99 2 197 82 278 47 48 115 107 123 107 2 0 -16 -30 -41
-66z m3344 -98 c39 -21 87 -77 101 -121 7 -20 10 -38 8 -40 -8 -9 -109 46
-133 71 -26 28 -32 26 -15 -7 18 -32 1 -21 -20 14 -20 32 -26 77 -13 90 11 11
42 8 72 -7z m-596 -138 c77 -144 90 -185 62 -208 -16 -13 -50 -6 -41 9 3 5 -6
13 -22 19 -18 6 -36 26 -52 58 -14 27 -46 85 -72 130 -27 45 -48 84 -48 87 0
9 64 47 80 47 9 0 45 -56 93 -142z m-2547 93 c55 -25 61 -37 20 -44 -67 -11
-116 -77 -116 -157 0 -22 -4 -40 -9 -40 -4 0 -29 16 -54 35 -51 39 -62 43 -53
18 6 -15 3 -14 -14 3 -47 47 -30 146 32 184 43 26 137 27 194 1z m144 -121 c8
-5 10 -10 4 -10 -7 0 -23 -16 -38 -35 l-26 -34 30 -34 c16 -19 50 -42 75 -52
26 -9 45 -19 42 -21 -9 -9 -75 18 -116 48 -25 17 -41 25 -37 17 4 -8 0 -5 -8
5 -9 11 -16 14 -16 8 0 -7 -7 -12 -15 -12 -8 0 -15 5 -15 11 0 5 -4 7 -10 4
-5 -3 -10 2 -10 12 0 10 -3 27 -6 38 -9 35 30 65 84 65 26 0 54 -5 62 -10z
m2886 -34 c58 -27 87 -66 104 -139 10 -48 -3 -137 -20 -137 -4 0 -10 -8 -12
-18 -3 -10 -23 -27 -44 -37 -49 -23 -106 -37 -98 -23 4 6 -8 9 -29 7 -26 -3
-44 4 -73 26 -50 38 -59 46 -67 68 -7 19 -22 22 -32 6 -21 -32 46 -105 119
-129 45 -14 144 -9 156 9 4 7 10 12 14 12 20 -3 28 2 52 35 15 20 36 59 46 87
l19 52 -5 -42 c-7 -70 -49 -131 -109 -159 -160 -74 -334 28 -351 207 -4 37 -3
45 3 24 7 -27 9 -28 15 -10 37 100 74 145 141 169 59 21 113 19 171 -8z m639
-63 c4 -10 10 -60 13 -112 l5 -94 -41 5 c-34 5 -41 3 -50 -16 -8 -17 -9 -14
-5 16 5 36 4 38 -41 60 -25 12 -46 24 -46 27 0 23 48 75 92 100 62 36 64 36
73 14z m-1355 -94 c31 -13 58 -34 74 -57 31 -45 76 -146 76 -170 0 -12 -28
-29 -88 -57 -48 -21 -143 -65 -212 -96 -69 -31 -195 -88 -280 -127 -85 -38
-180 -81 -210 -95 -146 -67 -201 -90 -203 -86 -2 2 -33 59 -70 126 -36 67 -73
133 -82 147 l-16 25 78 36 c43 20 134 62 203 92 113 49 207 93 455 209 85 40
178 73 208 73 10 1 40 -8 67 -20z m1160 -91 c41 -29 67 -63 80 -107 l9 -33
-21 18 c-21 18 -21 18 -15 0 6 -15 4 -17 -10 -11 -10 5 -47 16 -83 25 -65 18
-91 39 -48 41 13 0 17 3 10 6 -7 2 -33 -2 -59 -11 -25 -9 -43 -13 -40 -9 4 3
2 12 -3 18 -12 15 22 62 54 75 39 16 92 11 126 -12z m-3666 -40 c21 -30 20
-35 -11 -53 -16 -9 -19 -13 -8 -10 47 16 50 16 64 -15 7 -17 11 -34 7 -37 -7
-7 -205 -93 -231 -99 -59 -16 -65 -16 -65 -1 0 8 21 27 46 42 57 34 52 42 -10
15 -57 -24 -57 -24 -50 -5 4 9 1 15 -7 15 -7 0 2 11 21 25 39 29 36 31 -13 10
-43 -18 -70 -19 -65 -3 4 11 271 135 295 137 6 1 19 -9 27 -21z m519 -15 c8
-10 46 -76 85 -148 38 -71 90 -167 115 -212 100 -176 159 -304 147 -318 -6 -7
-41 -24 -78 -38 -37 -14 -84 -33 -104 -41 l-38 -16 0 28 c0 25 8 32 72 63 82
39 101 60 77 85 -15 14 -19 14 -47 0 -17 -9 -36 -16 -41 -16 -20 0 1 28 30 40
32 14 37 31 15 49 -11 9 -20 9 -35 2 -12 -7 -22 -7 -26 -2 -3 6 6 16 20 23 23
12 24 16 11 33 -14 20 -15 20 -73 0 -88 -29 -155 -73 -151 -99 2 -15 9 -20 26
-19 12 2 22 -2 22 -7 0 -6 -6 -10 -14 -10 -8 0 -18 -9 -21 -20 -3 -11 -9 -20
-13 -20 -4 0 -31 45 -61 99 -31 57 -60 97 -66 95 -10 -4 -136 209 -176 298
-17 38 -5 49 89 88 42 17 97 42 122 55 54 29 91 31 113 8z m2951 -155 c-8 -84
-14 -118 -22 -119 -62 -9 -64 -7 -57 28 3 19 8 42 11 51 3 9 -2 4 -12 -13 -19
-34 -44 -65 -53 -65 -61 2 -3 109 84 154 49 26 55 22 49 -36z m-3374 3 c15
-29 12 -39 -11 -46 -11 -4 -18 -9 -16 -12 3 -2 14 0 24 5 15 8 22 6 32 -10 15
-24 19 -19 -54 -56 -107 -53 -200 -102 -213 -113 -9 -7 -14 -5 -19 7 -4 10 -2
19 3 21 15 5 100 63 92 63 -3 0 -27 -9 -53 -20 -58 -25 -62 -25 -61 2 1 17 -6
24 -29 29 -29 6 -29 6 30 33 33 16 103 48 155 72 52 24 98 44 102 44 4 0 12
-9 18 -19z m2587 2 c2 -5 -22 -22 -54 -36 -177 -78 -301 -135 -479 -217 -510
-236 -464 -216 -464 -198 0 12 200 118 222 118 4 0 108 47 230 104 123 57 286
132 363 166 77 35 144 67 150 72 11 10 27 6 32 -9z m977 -58 c18 -9 40 -28 49
-44 22 -37 23 -111 2 -111 -8 0 -24 -9 -35 -20 -35 -35 -94 -20 -124 31 -14
24 -20 28 -32 18 -12 -9 -14 -6 -14 20 0 57 29 94 90 114 24 9 30 8 64 -8z
m-496 -45 c16 -12 39 -39 51 -60 l21 -38 -44 -17 -44 -17 -48 52 c-66 70 -71
80 -48 97 25 19 74 11 112 -17z m-1690 -12 c18 -24 149 -273 172 -330 26 -64
21 -79 -30 -96 -26 -10 -29 -8 -39 18 -8 23 -6 33 10 51 10 12 19 26 19 30 0
5 -21 30 -47 56 -26 27 -60 66 -75 88 -27 39 -27 39 -8 60 21 22 27 55 11 55
-6 0 -13 -4 -16 -10 -14 -23 -54 -10 -75 26 -12 19 -21 36 -19 38 32 26 81 33
97 14z m-1288 -73 c0 -6 -6 -17 -12 -24 -11 -10 -9 -11 6 -5 18 7 36 -9 36
-32 0 -6 -23 -21 -51 -34 -27 -13 -53 -29 -57 -35 -7 -11 -141 -79 -156 -80
-27 -1 -11 27 28 50 43 25 62 44 34 32 -98 -39 -122 -46 -103 -31 16 13 17 17
6 21 -10 4 -8 10 9 23 24 18 24 18 -21 10 -24 -5 -46 -7 -47 -5 -5 5 74 46
203 106 88 41 101 44 113 31 6 -9 12 -21 12 -27z m1239 -111 c45 -86 81 -158
81 -161 0 -2 -47 -26 -104 -53 -103 -48 -132 -73 -166 -140 -10 -20 -4 -17 26
13 44 44 74 61 187 106 91 36 87 35 87 17 0 -7 -21 -21 -47 -31 -152 -57 -236
-122 -287 -222 -40 -80 -100 -148 -153 -174 -40 -20 -63 -24 -134 -23 -74 1
-96 5 -152 31 -49 24 -68 28 -77 20 -8 -9 -14 -8 -21 5 -5 10 -16 15 -25 11
-22 -8 -81 52 -115 119 -41 81 -40 160 2 266 47 115 62 143 87 160 21 13 25
13 38 0 14 -14 11 -24 -27 -99 -41 -80 -43 -88 -44 -174 0 -80 3 -95 27 -136
36 -61 88 -105 165 -141 74 -35 162 -46 219 -28 90 29 186 128 165 169 -7 13
-6 18 4 18 7 0 11 -7 8 -16 -4 -13 -3 -13 5 -2 11 16 5 44 -8 36 -5 -3 -11 -1
-15 5 -4 6 -11 8 -16 4 -27 -16 -133 -33 -211 -33 -48 1 -93 -3 -99 -7 -8 -4
-9 -3 -5 4 7 12 -68 37 -84 27 -6 -3 -7 1 -4 9 3 9 1 16 -5 16 -6 0 -11 -5
-11 -11 0 -8 -4 -8 -13 0 -12 9 -13 20 -8 63 1 3 25 14 54 23 78 26 164 74
195 110 16 17 47 65 69 106 81 145 155 217 261 255 66 23 65 24 151 -142z
m2496 56 c27 -52 29 -96 5 -145 -12 -25 -28 -45 -36 -45 -8 0 -14 -4 -14 -10
0 -5 -5 -10 -11 -10 -5 0 -7 5 -3 11 4 7 -1 7 -16 -1 -21 -11 -22 -11 -17 11
27 97 29 135 15 191 -19 73 -7 90 35 50 16 -15 35 -38 42 -52z m-494 -6 c88
-48 149 -141 157 -240 4 -51 2 -62 -13 -67 -25 -10 -32 -2 -38 49 -8 73 -54
153 -109 187 -109 68 -228 30 -228 -73 0 -78 62 -119 234 -155 117 -24 331
-93 372 -120 25 -16 60 -63 52 -70 -2 -2 -44 9 -93 26 -50 16 -133 41 -185 55
-311 83 -372 109 -421 180 -44 65 -49 117 -13 170 61 94 175 117 285 58z
m-3221 -175 c-18 -42 -60 -69 -110 -69 -51 0 -80 15 -80 41 0 15 22 30 92 65
l93 45 8 -26 c6 -17 5 -37 -3 -56z m2774 -31 c28 -39 20 -62 -24 -76 -36 -11
-277 -124 -680 -319 -74 -36 -197 -94 -272 -129 -75 -35 -169 -79 -208 -99
-40 -20 -73 -35 -74 -33 -33 46 -46 68 -46 75 0 5 24 20 53 33 28 13 153 72
277 131 124 59 331 157 460 218 129 61 285 136 345 166 61 29 120 54 132 54
12 1 29 -9 37 -21z m-2673 -238 c46 -80 104 -181 130 -225 121 -206 170 -316
121 -272 -12 11 -22 13 -33 6 -12 -6 -19 -4 -23 7 -3 8 -10 13 -15 9 -10 -6
-56 67 -131 210 -24 44 -69 125 -100 181 -32 55 -74 132 -93 171 l-36 70 32
15 c40 20 37 23 148 -172z m-455 150 c24 -17 55 -47 68 -67 25 -36 25 -68 -1
-59 -9 4 -16 -4 -20 -25 -6 -30 -28 -49 -57 -49 -9 0 -19 15 -25 38 -10 39
-21 192 -14 192 3 0 24 -14 49 -30z m2308 -16 c3 -9 6 -46 6 -84 0 -54 -3 -69
-17 -74 -24 -10 -37 8 -22 32 15 25 5 41 -46 71 -30 18 -33 18 -38 2 -7 -28
10 -61 29 -54 12 4 15 1 12 -13 -6 -31 -34 -28 -54 5 -10 17 -24 31 -31 31
-14 0 -17 11 -13 45 3 27 7 30 25 15 12 -10 19 -10 27 -2 16 16 43 15 58 -3
19 -23 30 -18 30 15 0 32 23 42 34 14z m1012 -179 c60 -96 124 -198 142 -227
42 -68 40 -101 -8 -136 l-35 -26 28 28 c15 15 27 37 27 49 0 27 -68 139 -80
132 -5 -3 -12 0 -16 6 -5 8 -2 10 7 5 8 -4 6 -1 -3 6 -10 9 -31 12 -52 10 -29
-3 -36 -8 -36 -26 0 -16 -10 -25 -37 -35 -21 -7 -56 -22 -79 -32 -23 -11 -49
-17 -58 -13 -9 4 -16 1 -16 -6 0 -7 -7 -10 -16 -6 -8 3 -13 2 -10 -3 3 -5 -8
-14 -24 -20 -17 -5 -30 -17 -30 -25 0 -14 -36 -33 -53 -28 -5 1 -6 -2 -2 -8 3
-5 1 -10 -4 -10 -6 0 -11 -8 -11 -17 -1 -16 -2 -15 -12 2 -12 19 -12 19 -19
-5 -6 -22 -7 -21 -8 10 -2 47 -38 109 -81 138 -29 20 -44 23 -93 20 -61 -5
-95 -23 -131 -71 -39 -52 -25 -160 31 -236 17 -24 17 -24 -5 -12 -24 13 -29 3
-9 -18 10 -11 8 -11 -11 -1 -16 8 -22 18 -19 31 3 11 1 16 -5 13 -5 -4 -7 -20
-4 -36 5 -25 4 -28 -8 -19 -14 12 -50 -1 -172 -60 -40 -20 -77 -26 -162 -28
-26 -1 -41 -5 -37 -11 5 -9 -24 -15 -48 -11 -5 1 -5 -4 -1 -10 4 -7 -3 -20
-17 -31 -13 -11 -18 -17 -11 -13 8 4 12 2 11 -6 -2 -8 7 -33 19 -56 12 -23 22
-45 22 -49 0 -6 -147 227 -220 349 -44 73 -59 74 -19 1 16 -31 29 -58 27 -59
-2 -2 -20 23 -40 55 l-36 58 257 123 c141 67 319 153 396 190 77 37 217 103
310 146 94 44 202 96 240 116 39 20 79 36 91 37 16 0 44 -39 130 -175z m364
30 c0 -8 -7 -42 -16 -74 -9 -32 -14 -70 -10 -84 11 -45 54 -86 97 -93 23 -4
38 -12 36 -18 -6 -18 -47 -19 -93 -1 -85 32 -106 123 -56 238 21 46 42 62 42
32z m-1900 -85 c0 -11 7 -20 15 -20 8 0 19 -9 25 -20 14 -27 -1 -55 -42 -76
-35 -18 -32 -21 -79 69 l-29 57 22 9 c48 17 53 18 71 9 9 -5 17 -18 17 -28z
m-1556 -75 c18 -8 18 -9 0 -22 -10 -7 -14 -13 -8 -13 5 0 -4 -7 -19 -15 -22
-11 -38 -12 -70 -5 -65 15 -75 12 -37 -12 20 -12 30 -23 23 -25 -7 -3 -13 -11
-13 -19 0 -8 -7 -14 -15 -14 -14 0 -131 76 -141 91 -6 10 72 39 131 47 50 8
113 2 149 -13z m2613 -159 c27 -29 33 -43 32 -78 l-1 -43 -11 40 -12 39 -22
-37 c-25 -41 -62 -56 -105 -39 -38 14 -38 -9 0 -37 l27 -20 -25 -1 c-14 0 -36
8 -49 17 -18 12 -22 13 -17 2 4 -8 -4 -1 -19 15 -22 24 -26 36 -21 64 18 115
148 161 223 78z m-2482 11 c21 -12 53 -41 69 -65 25 -35 30 -52 30 -96 -1 -71
-38 -131 -84 -140 -3 -1 -27 -10 -55 -20 -47 -18 -52 -18 -96 -3 -55 20 -62
21 -53 6 3 -6 -6 -3 -20 6 -28 19 -58 70 -70 117 -8 36 10 114 34 148 48 67
169 90 245 47z m913 -34 c-21 -49 -112 -203 -119 -203 -13 0 -11 26 6 68 l15
37 -20 -25 c-51 -64 -60 -71 -72 -63 -28 17 -38 9 -52 -35 -10 -31 -15 -39
-15 -23 -3 78 70 180 161 225 49 25 104 35 96 19z m56 -91 c-12 -9 -36 -25
-53 -34 -30 -17 -42 -38 -20 -38 6 0 23 8 37 19 15 10 38 22 52 26 15 4 5 -7
-27 -29 -29 -20 -53 -43 -53 -52 0 -9 5 -12 13 -8 6 4 29 18 50 31 21 13 43
23 48 21 6 -2 -11 -16 -36 -33 -26 -16 -51 -37 -56 -47 -15 -27 5 -23 53 12
22 17 48 30 57 30 10 0 8 -5 -9 -17 -64 -42 -90 -65 -84 -74 4 -6 14 -5 27 4
70 44 97 58 97 50 0 -5 -17 -19 -38 -31 -45 -25 -77 -58 -65 -65 5 -3 22 3 39
14 46 32 84 50 84 42 0 -5 -16 -17 -36 -28 -19 -10 -49 -29 -66 -41 -29 -22
-29 -23 -7 -21 13 2 48 15 77 31 70 36 79 27 11 -11 -29 -15 -58 -37 -66 -49
-12 -18 -9 -27 26 -80 21 -32 72 -96 114 -140 42 -45 74 -84 71 -87 -3 -3 4
-8 15 -12 12 -3 21 -10 21 -15 0 -5 36 -44 80 -86 72 -69 79 -79 65 -93 -13
-13 -13 -17 2 -33 9 -10 14 -18 11 -18 -2 0 -15 12 -29 27 -13 14 -19 23 -13
20 14 -8 39 19 26 27 -5 3 -19 4 -31 1 -12 -2 -19 0 -16 6 4 5 1 9 -4 9 -6 0
-11 -5 -11 -11 0 -5 -5 -7 -11 -3 -8 5 -6 10 5 16 12 7 22 5 33 -4 12 -9 14
-9 9 -1 -4 7 -23 20 -43 30 -20 9 -31 19 -25 21 7 2 12 8 12 14 0 6 -10 3 -22
-8 -19 -17 -21 -17 -15 -1 5 14 3 16 -12 8 -10 -6 -21 -8 -25 -6 -3 3 -3 2 0
-2 3 -5 10 -9 15 -9 5 -1 10 -2 12 -4 1 -1 10 -3 20 -5 25 -5 31 -11 18 -20
-6 -3 -11 -1 -11 5 0 6 -5 8 -12 4 -8 -5 15 -33 68 -82 43 -41 57 -57 29 -35
-63 51 -353 336 -389 383 -15 19 -8 6 16 -30 23 -36 43 -73 43 -83 2 -21 4
-23 -72 78 -79 105 -108 157 -128 229 -33 113 0 225 81 276 51 32 83 40 48 12z
m-475 -81 c20 -16 46 -45 56 -65 19 -34 19 -35 0 -57 -11 -11 -19 -29 -17 -38
1 -10 -3 -18 -10 -19 -7 0 -22 -3 -34 -7 -15 -5 -23 0 -32 20 -12 26 -17 195
-6 195 3 0 23 -13 43 -29z m1007 -26 c41 -61 57 -74 25 -20 -14 24 -16 35 -8
35 10 0 222 -354 287 -479 29 -57 -13 -2 -75 96 -73 116 -104 156 -63 83 64
-115 102 -178 125 -209 23 -29 23 -32 5 -22 -11 6 -38 37 -59 70 -58 90 -67
101 -37 46 44 -83 86 -145 93 -140 4 2 8 -2 8 -9 0 -28 -27 -2 -80 77 -30 45
-59 91 -65 102 -6 11 -12 16 -12 11 0 -12 99 -177 123 -203 11 -13 28 -23 36
-24 10 0 11 -3 4 -5 -23 -10 -63 29 -119 117 -31 49 -59 89 -61 89 -7 0 58
-112 94 -162 19 -27 30 -48 25 -48 -14 0 -52 53 -114 160 -30 52 -85 146 -122
208 -66 114 -80 146 -51 122 13 -11 12 -7 -2 18 -20 35 -11 55 13 26 15 -17
15 -16 0 8 -9 15 -16 35 -16 45 0 15 4 14 21 -7 17 -21 19 -22 10 -3 -18 36
-31 73 -26 73 3 0 21 -25 41 -55z m1664 -200 c-5 -7 -7 -15 -4 -18 3 -3 -15
-12 -42 -20 -26 -7 -50 -19 -51 -24 -2 -6 31 0 73 13 43 13 79 22 81 20 10
-10 -206 -164 -291 -207 -140 -72 -287 -118 -316 -99 -12 9 -1 24 65 86 82 79
85 80 409 233 64 30 92 36 76 16z m-2750 -48 c88 -71 133 -135 176 -245 33
-85 104 -296 104 -308 0 -15 -245 191 -302 254 -21 23 -48 63 -61 89 -22 43
-67 184 -67 209 0 9 67 53 80 54 3 0 34 -24 70 -53z m335 -119 c11 -6 35 -21
53 -35 26 -19 30 -28 22 -42 -5 -10 -6 -22 -2 -26 4 -5 -1 -5 -10 -2 -13 4
-15 2 -11 -10 5 -13 -2 -12 -32 7 l-40 24 24 -32 c18 -26 20 -36 11 -47 -34
-41 -89 12 -121 116 -28 90 -28 91 34 72 28 -8 61 -20 72 -25z m1755 -222 c0
-32 -115 -127 -207 -171 -123 -58 -253 -96 -253 -73 0 6 -11 3 -26 -6 -15 -11
-40 -16 -62 -14 l-37 3 83 44 c45 25 82 49 82 54 0 4 4 6 9 2 5 -3 12 -1 16 4
10 18 -38 2 -120 -39 -93 -46 -194 -75 -209 -60 -7 7 -3 10 10 10 35 0 156 45
224 84 167 94 306 156 385 170 107 19 105 19 105 -8z m-1489 -117 c-10 -75 -1
-149 28 -214 18 -40 18 -44 3 -36 -80 43 -125 187 -87 278 23 55 35 67 52 50
11 -10 11 -27 4 -78z"/>
<path d="M3195 4241 c-134 -34 -202 -157 -164 -296 16 -56 87 -121 156 -141
66 -19 112 -13 181 27 57 32 94 90 106 165 10 57 -23 142 -74 188 -51 46 -145
72 -205 57z m128 -25 c79 -33 136 -136 116 -209 -12 -45 -67 -120 -80 -111 -8
4 -7 10 2 16 16 11 8 8 -46 -16 -49 -23 -111 -17 -157 14 -30 20 -29 19 7 -14
37 -34 38 -36 10 -22 -62 30 -115 111 -115 173 1 74 59 142 143 169 55 17 81
17 120 0z"/>
<path d="M2246 3385 c-69 -28 -78 -35 -66 -54 7 -12 18 -10 68 12 68 31 89 33
118 13 22 -15 26 -57 7 -63 -7 -3 -10 6 -9 21 2 14 -1 23 -6 20 -5 -3 -7 -12
-4 -20 3 -8 -1 -14 -10 -14 -12 0 -15 7 -10 28 3 15 3 21 0 14 -5 -10 -9 -10
-21 -1 -11 10 -13 10 -11 -1 2 -7 -3 -15 -11 -18 -9 -3 -11 0 -6 8 6 9 3 10
-11 2 -11 -6 -23 -9 -29 -9 -15 3 -23 -58 -11 -86 l11 -26 58 24 c81 33 97 49
97 100 0 77 -49 93 -154 50z"/>
<path d="M820 1672 c-50 -26 -83 -94 -70 -143 20 -70 79 -119 146 -119 41 0
99 39 124 82 67 119 -74 246 -200 180z"/>
</g>
</svg>
