<svg xmlns="http://www.w3.org/2000/svg" xmlns:xlink="http://www.w3.org/1999/xlink" width="1080" height="1080" style="width:100%;height:100%;transform:translate3d(0,0,0);content-visibility:visible"><defs><mask id="cn" mask-type="alpha"><use xlink:href="#a"/></mask><mask id="cl" mask-type="alpha"><g filter="url(#b)"><use xlink:href="#c"/></g></mask><mask id="ck" mask-type="alpha"><use xlink:href="#d"/></mask><mask id="cj" mask-type="alpha"><use xlink:href="#e"/></mask><mask id="ch" mask-type="alpha"><g filter="url(#f)"><use xlink:href="#g"/></g></mask><mask id="cf" mask-type="alpha"><use xlink:href="#h"/></mask><mask id="cd" mask-type="alpha"><g filter="url(#i)"><use xlink:href="#j"/></g></mask><mask id="cc" mask-type="alpha"><use xlink:href="#k"/></mask><mask id="cb" mask-type="alpha"><use xlink:href="#l"/></mask><mask id="bZ" mask-type="alpha"><g filter="url(#m)"><use xlink:href="#n"/></g></mask><mask id="bX" mask-type="alpha"><use xlink:href="#o"/></mask><mask id="bV" mask-type="alpha"><g filter="url(#p)"><use xlink:href="#q"/></g></mask><mask id="bU" mask-type="alpha"><use xlink:href="#r"/></mask><mask id="bT" mask-type="alpha"><use xlink:href="#s"/></mask><mask id="bR" mask-type="alpha"><g filter="url(#t)"><use xlink:href="#u"/></g></mask><mask id="bH" mask-type="alpha"><use xlink:href="#v"/></mask><mask id="bG" mask-type="alpha"><use xlink:href="#w"/></mask><mask id="bE" mask-type="alpha"><use xlink:href="#x"/></mask><mask id="bD" mask-type="alpha"><use xlink:href="#y"/></mask><mask id="bB" mask-type="alpha"><use xlink:href="#z"/></mask><mask id="bA" mask-type="alpha"><use xlink:href="#A"/></mask><mask id="by" mask-type="alpha"><use xlink:href="#B"/></mask><mask id="bx" mask-type="alpha"><use xlink:href="#C"/></mask><mask id="bu" mask-type="alpha"><use xlink:href="#D"/></mask><mask id="bv" mask-type="alpha"><use xlink:href="#E"/></mask><mask id="br" mask-type="alpha"><use xlink:href="#F"/></mask><mask id="bs" mask-type="alpha"><use xlink:href="#G"/></mask><mask id="bo" mask-type="alpha"><use xlink:href="#H"/></mask><mask id="bp" mask-type="alpha"><use xlink:href="#I"/></mask><mask id="bl" mask-type="alpha"><use xlink:href="#J"/></mask><mask id="bm" mask-type="alpha"><use xlink:href="#K"/></mask><mask id="bh" mask-type="alpha"><use xlink:href="#L"/></mask><mask id="bd" mask-type="alpha"><use xlink:href="#M"/></mask><mask id="aZ" mask-type="alpha"><use xlink:href="#N"/></mask><mask id="aX" mask-type="alpha"><use xlink:href="#O"/></mask><mask id="aW" mask-type="alpha"><use xlink:href="#P"/></mask><mask id="aV" mask-type="alpha"><use xlink:href="#Q"/></mask><mask id="aT" mask-type="alpha"><use xlink:href="#R"/></mask><mask id="aS" mask-type="alpha"><use xlink:href="#S"/></mask><mask id="aR" mask-type="alpha"><use xlink:href="#T"/></mask><mask id="aP" mask-type="alpha"><use xlink:href="#U"/></mask><mask id="aO" mask-type="alpha"><use xlink:href="#V"/></mask><mask id="aN" mask-type="alpha"><use xlink:href="#W"/></mask><mask id="aL" mask-type="alpha"><use xlink:href="#X"/></mask><mask id="aK" mask-type="alpha"><use xlink:href="#Y"/></mask><mask id="aJ" mask-type="alpha"><use xlink:href="#Z"/></mask><mask id="aG" mask-type="alpha"><use xlink:href="#aa"/></mask><mask id="aF" mask-type="alpha"><use xlink:href="#ab"/></mask><mask id="aE" mask-type="alpha"><use xlink:href="#ac"/></mask><mask id="aC" mask-type="alpha"><use xlink:href="#ad"/></mask><mask id="az" mask-type="alpha"><use xlink:href="#ae"/></mask><mask id="ay" mask-type="alpha"><use xlink:href="#af"/></mask><mask id="ax" mask-type="alpha"><use xlink:href="#ag"/></mask><mask id="av" mask-type="alpha"><use xlink:href="#ah"/></mask><mask id="as" mask-type="alpha"><use xlink:href="#ai"/></mask><mask id="ar" mask-type="alpha"><use xlink:href="#aj"/></mask><mask id="aq" mask-type="alpha"><use xlink:href="#ak"/></mask><mask id="ao" mask-type="alpha"><use xlink:href="#al"/></mask><clipPath id="am"><path d="M0 0h1080v1080H0z"/></clipPath><clipPath id="cg"><path d="M0 0h1920v1079H0z"/></clipPath><clipPath id="cm"><path d="M0 0h1920v1079H0z"/></clipPath><clipPath id="ci"><path d="M0 0h1920v1079H0z"/></clipPath><clipPath id="bY"><path d="M0 0h1920v1079H0z"/></clipPath><clipPath id="ce"><path d="M0 0h1920v1079H0z"/></clipPath><clipPath id="ca"><path d="M0 0h1920v1079H0z"/></clipPath><clipPath id="bQ"><path d="M0 0h1920v1079H0z"/></clipPath><clipPath id="bW"><path d="M0 0h1920v1079H0z"/></clipPath><clipPath id="bS"><path d="M0 0h1920v1079H0z"/></clipPath><clipPath id="bP"><path d="M0 0h1920v1079H0z"/></clipPath><clipPath id="bO"><path d="M0 0h1920v1079H0z"/></clipPath><clipPath id="bN"><path d="M0 0h1920v1079H0z"/></clipPath><clipPath id="bM"><path d="M0 0h1920v1079H0z"/></clipPath><clipPath id="bL"><path d="M0 0h1920v1079H0z"/></clipPath><clipPath id="bK"><path d="M0 0h1920v1079H0z"/></clipPath><clipPath id="bJ"><path d="M0 0h1920v1079H0z"/></clipPath><clipPath id="bI"><path d="M0 0h1920v1079H0z"/></clipPath><clipPath id="bF"><path d="M0 0h1920v1079H0z"/></clipPath><clipPath id="bC"><path d="M0 0h1920v1079H0z"/></clipPath><clipPath id="bz"><path d="M0 0h1920v1079H0z"/></clipPath><clipPath id="bw"><path d="M0 0h1920v1079H0z"/></clipPath><clipPath id="bt"><path d="M0 0h1920v1079H0z"/></clipPath><clipPath id="bq"><path d="M0 0h1920v1079H0z"/></clipPath><clipPath id="bn"><path d="M0 0h1920v1079H0z"/></clipPath><clipPath id="bk"><path d="M0 0h1920v1079H0z"/></clipPath><clipPath id="bg"><path d="M0 0h1920v1079H0z"/></clipPath><clipPath id="bi"><path d="M0 0h1920v1079H0z"/></clipPath><clipPath id="bc"><path d="M0 0h1920v1079H0z"/></clipPath><clipPath id="be"><path d="M0 0h1920v1079H0z"/></clipPath><clipPath id="aY"><path d="M0 0h1920v1079H0z"/></clipPath><clipPath id="ba"><path d="M0 0h1920v1079H0z"/></clipPath><clipPath id="aU"><path d="M0 0h1920v1079H0z"/></clipPath><clipPath id="aQ"><path d="M0 0h1920v1079H0z"/></clipPath><clipPath id="aM"><path d="M0 0h1920v1079H0z"/></clipPath><clipPath id="aI"><path d="M0 0h1920v1079H0z"/></clipPath><clipPath id="aB"><path d="M0 0h1920v1079H0z"/></clipPath><clipPath id="aH"><path d="M0 0h1920v1079H0z"/></clipPath><clipPath id="aD"><path d="M0 0h1920v1079H0z"/></clipPath><clipPath id="au"><path d="M0 0h1920v1079H0z"/></clipPath><clipPath id="aA"><path d="M0 0h1920v1079H0z"/></clipPath><clipPath id="aw"><path d="M0 0h1920v1079H0z"/></clipPath><clipPath id="an"><path d="M0 0h1920v1079H0z"/></clipPath><clipPath id="at"><path d="M0 0h1920v1079H0z"/></clipPath><clipPath id="ap"><path d="M0 0h1920v1079H0z"/></clipPath><path fill="#DB8D74" d="M521.5 303c-16.5 11-42 12.5-66 13.5s-53.834 22.53-51 52c2.5 26 27.5 43 54.5 43.5 30.012.556 61-2.5 100.5-24s36.5-55.5 23.5-77-45-19-61.5-8z" transform="rotate(-6 6207.043 -8631.536)" style="display:block" id="e"/><path fill="#DB8D74" d="M521.5 303c-16.5 11-42 12.5-66 13.5s-53.834 22.53-51 52c2.5 26 27.5 43 54.5 43.5 30.012.556 61-2.5 100.5-24s36.5-55.5 23.5-77-45-19-61.5-8z" transform="rotate(-6 6207.043 -8631.536)" style="display:block" id="l"/><path fill="#DB8D74" d="M482.763 275.603c-62.54 10.163-70.236 76.625-62.591 127.106 8.645 49.929 23.159 76.255 59.745 71.089 30.143-4.48 46.95-27.825 42.718-65.137-4.113-34.11 2.888-55.598 6.279-76.482 5.387-32.209-15.527-60.714-46.15-56.576z" transform="rotate(35.667 107.154 2195.246)" style="display:block" id="o"/><path fill="#DB8D74" d="M521.5 303c-16.5 11-42 12.5-66 13.5s-53.834 22.53-51 52c2.5 26 27.5 43 54.5 43.5 30.012.556 61-2.5 100.5-24s36.5-55.5 23.5-77-45-19-61.5-8z" transform="translate(975 551.5)" style="display:block" id="s"/><path fill="#FFCBA3" d="M208.585-408.855c-7.835-3.645-36.835-2.645-50.532 21.238-12.377 21.58-5.057 49.093 16.487 61.532 0 0 2.21 1.585 4.192 2.604C165-376.5 201.25-403.25 213.777-407.001c-1.277-.999-5.192-1.854-5.192-1.854z" transform="rotate(.02 -2326156.838 4082455.061)" style="display:block" id="v"/><path fill="#B23232" d="m181.611-391.64 1.47 3.198c1.386 3.013.04 6.561-3.004 7.925-3.045 1.363-6.635.025-8.02-2.989l-1.47-3.198c-1.386-3.014-.041-6.561 3.004-7.925 3.044-1.363 6.635-.026 8.02 2.988z" transform="rotate(.02 -2326156.838 4082455.061)" style="display:block" id="w"/><path fill="#FFCBA3" d="M208.585-408.855c-7.835-3.645-36.835-2.645-50.532 21.238-12.377 21.58-5.057 49.093 16.487 61.532 0 0 2.21 1.585 4.192 2.604C165-376.5 201.25-403.25 213.777-407.001c-1.277-.999-5.192-1.854-5.192-1.854z" transform="rotate(1.568 -20927.52 37851.114)" style="display:block" id="x"/><path fill="#B23232" d="m184.23-391.34 1.119 3.378c1.054 3.184-.808 6.524-4.159 7.46-3.35.936-6.92-.888-7.975-4.072l-1.118-3.378c-1.054-3.185.808-6.524 4.158-7.46 3.35-.936 6.921.887 7.975 4.071z" transform="rotate(1.568 -20927.52 37851.114)" style="display:block" id="y"/><path fill="#FFCBA3" d="M208.585-408.855c-7.835-3.645-36.835-2.645-50.532 21.238-12.377 21.58-5.057 49.093 16.487 61.532 0 0 2.21 1.585 4.192 2.604C165-376.5 201.25-403.25 213.777-407.001c-1.277-.999-5.192-1.854-5.192-1.854z" transform="rotate(.259 -129971.15 229265.699)" style="display:block" id="z"/><path fill="#B23232" d="m181.104-391.699 1.538 3.164a5.992 5.992 0 0 1-2.78 8.015 6.014 6.014 0 0 1-8.03-2.779l-1.538-3.163a5.992 5.992 0 0 1 2.78-8.015 6.014 6.014 0 0 1 8.03 2.778z" transform="rotate(.259 -129971.15 229265.699)" style="display:block" id="A"/><path fill="#FFCBA3" d="M208.585-408.855c-7.835-3.645-36.835-2.645-50.532 21.238-12.377 21.58-5.057 49.093 16.487 61.532 0 0 2.21 1.585 4.192 2.604C165-376.5 201.25-403.25 213.777-407.001c-1.277-.999-5.192-1.854-5.192-1.854z" transform="rotate(1.568 -20927.273 37851.03)" style="display:block" id="B"/><path fill="#B23232" d="m184.225-391.341 1.12 3.378c1.054 3.183-.807 6.524-4.156 7.46-3.35.938-6.921-.885-7.976-4.069l-1.12-3.378c-1.053-3.184.808-6.524 4.157-7.46 3.35-.938 6.921.884 7.975 4.069z" transform="rotate(1.568 -20927.273 37851.03)" style="display:block" id="C"/><path fill="#58CC02" d="M318.202-45.464c15.252 94.999-31.572 144.035-95.655 159.537-84.448 20.428-134.794-43.146-151.05-96.71C16-165.5 158.631-177.933 166.59-174.39a21.642 21.642 0 0 0 13.898 1.277c13.72-3.334 29.364-13.462 52.062-24.71 28.634-14.19 72.547 1.407 71.323 40.679 0 0 5.505 56.717 14.329 111.68zm-15 4c15.252 94.999-16.572 140.035-80.655 155.537-84.448 20.428-144.155-35.09-168.05-85.71C36.399-9.976 31.209-79.308 31.209-79.308c-2.443-42.408 8.57-88.445 47.15-106.222 17.568-8.095 35.66-11.367 49.816-6.28 21.939 7.884 30.456 13.877 38.415 17.42 4.363 1.942 127.788 77.963 136.612 132.926z" transform="rotate(-2.646 13776.4 -22136.3)" style="display:block" id="E"/><path fill="#58CC02" d="M318.202-45.464c15.252 94.999-31.572 144.035-95.655 159.537-84.448 20.428-134.794-43.146-151.05-96.71C16-165.5 158.631-177.933 166.59-174.39a21.642 21.642 0 0 0 13.898 1.277c13.72-3.334 29.364-13.462 52.062-24.71 28.634-14.19 72.547 1.407 71.323 40.679 0 0 5.505 56.717 14.329 111.68zm-15 4c15.252 94.999-16.572 140.035-80.655 155.537-84.448 20.428-144.155-35.09-168.05-85.71C36.399-9.976 31.209-79.308 31.209-79.308c-2.443-42.408 8.57-88.445 47.15-106.222 17.568-8.095 35.66-11.367 49.816-6.28 21.939 7.884 30.456 13.877 38.415 17.42 4.363 1.942 127.788 77.963 136.612 132.926z" transform="rotate(-2.989 12395.394 -19598.074)" style="display:block" id="G"/><path fill="#58CC02" d="M318.202-45.464c15.252 94.999-31.572 144.035-95.655 159.537-84.448 20.428-134.794-43.146-151.05-96.71C16-165.5 158.631-177.933 166.59-174.39a21.642 21.642 0 0 0 13.898 1.277c13.72-3.334 29.364-13.462 52.062-24.71 28.634-14.19 72.547 1.407 71.323 40.679 0 0 5.505 56.717 14.329 111.68zm-15 4c15.252 94.999-16.572 140.035-80.655 155.537-84.448 20.428-144.155-35.09-168.05-85.71C36.399-9.976 31.209-79.308 31.209-79.308c-2.443-42.408 8.57-88.445 47.15-106.222 17.568-8.095 35.66-11.367 49.816-6.28 21.939 7.884 30.456 13.877 38.415 17.42 4.363 1.942 127.788 77.963 136.612 132.926z" transform="rotate(-1.749 20292.965 -33600.745)" style="display:block" id="I"/><path fill="#58CC02" d="M318.202-45.464c15.252 94.999-31.572 144.035-95.655 159.537-84.448 20.428-134.794-43.146-151.05-96.71C16-165.5 158.631-177.933 166.59-174.39a21.642 21.642 0 0 0 13.898 1.277c13.72-3.334 29.364-13.462 52.062-24.71 28.634-14.19 72.547 1.407 71.323 40.679 0 0 5.505 56.717 14.329 111.68zm-15 4c15.252 94.999-16.572 140.035-80.655 155.537-84.448 20.428-144.155-35.09-168.05-85.71C36.399-9.976 31.209-79.308 31.209-79.308c-2.443-42.408 8.57-88.445 47.15-106.222 17.568-8.095 35.66-11.367 49.816-6.28 21.939 7.884 30.456 13.877 38.415 17.42 4.363 1.942 127.788 77.963 136.612 132.926z" transform="rotate(-2.985 12394.635 -19619.16)" style="display:block" id="K"/><path fill="#FFC7B8" d="M552.811-154.957c-14.873-8.982-34.962-11.237-52.179-1.891l-28.256 15.339a51.11 51.11 0 0 0-25.616 34.316l-7.98 37.63C434.57-49.714 440-30 458.986-17.428 477.972-4.856 510.5 12 528.501 43.852c6.897 12.204 42.974 11.603 54.934 7.15l38.691-9.376A38.335 38.335 0 0 0 651.93 8.839l6.319-51.72c-.568-6.318-6.973-19.296-11.519-26.102C621-107.5 590-132.5 552.811-154.957z" transform="rotate(-6.966 5759.877 -7826.362)" style="display:block" id="L"/><path fill="#FFC7B8" d="M552.811-154.957c-14.873-8.982-34.962-11.237-52.179-1.891l-28.256 15.339a51.11 51.11 0 0 0-25.616 34.316l-7.98 37.63C434.57-49.714 440-30 458.986-17.428 477.972-4.856 510.5 12 528.501 43.852c6.897 12.204 42.974 11.603 54.934 7.15l38.691-9.376A38.335 38.335 0 0 0 651.93 8.839l6.319-51.72c-.568-6.318-6.973-19.296-11.519-26.102C621-107.5 590-132.5 552.811-154.957z" transform="rotate(-5.183 7365.859 -10627.022)" style="display:block" id="M"/><path fill="#FFC7B8" d="M552.811-154.957c-14.873-8.982-34.962-11.237-52.179-1.891l-28.256 15.339a51.11 51.11 0 0 0-25.616 34.316l-7.98 37.63C434.57-49.714 440-30 458.986-17.428 477.972-4.856 510.5 12 528.501 43.852c6.897 12.204 42.974 11.603 54.934 7.15l38.691-9.376A38.335 38.335 0 0 0 651.93 8.839l6.319-51.72c-.568-6.318-6.973-19.296-11.519-26.102C621-107.5 590-132.5 552.811-154.957z" transform="rotate(-6.966 5759.878 -7826.362)" style="display:block" id="N"/><path fill="#CC348D" d="M745.232-224.137c-.304-28.44 22.505-51.741 50.945-52.045 28.44-.304 51.741 22.506 52.045 50.946.304 28.44-22.505 51.74-50.945 52.044-28.44.304-51.741-22.505-52.045-50.945z" transform="rotate(-3.225 11773.017 -18195.726)" style="display:block" id="O"/><path fill="#0084C2" d="M732.862-124.382c4.759-25.473 29.266-42.264 54.739-37.505s42.265 29.265 37.506 54.738-29.266 42.265-54.739 37.506-42.265-29.266-37.506-54.739z" transform="rotate(3.225 -9135.546 18467.86)" style="display:block" id="P"/><path fill="#AFD5E0" d="M750.527-172.52c-2.856 6.832 153.036 310.917-59.97 264.614s1.1-278.504 4.916-287.632c3.816-9.128 19.234-11.375 34.437-5.019 15.203 6.356 24.433 18.909 20.617 28.037z" transform="rotate(-6.449 6505.285 -9054.674)" style="display:block" id="Q"/><path fill="#CC348D" d="M745.232-224.137c-.304-28.44 22.505-51.741 50.945-52.045 28.44-.304 51.741 22.506 52.045 50.946.304 28.44-22.505 51.74-50.945 52.044-28.44.304-51.741-22.505-52.045-50.945z" transform="rotate(-5.989 6934.078 -9712.103)" style="display:block" id="R"/><path fill="#0084C2" d="M732.862-124.382c4.759-25.473 29.266-42.264 54.739-37.505s42.265 29.265 37.506 54.738-29.266 42.265-54.739 37.506-42.265-29.266-37.506-54.739z" transform="rotate(5.989 -4300.438 9982.162)" style="display:block" id="S"/><path fill="#AFD5E0" d="M750.527-172.52c-2.856 6.832 153.036 310.917-59.97 264.614s1.1-278.504 4.916-287.632c3.816-9.128 19.234-11.375 34.437-5.019 15.203 6.356 24.433 18.909 20.617 28.037z" transform="rotate(-11.978 4080.432 -4797.177)" style="display:block" id="T"/><path fill="#CC348D" d="M745.232-224.137c-.304-28.44 22.505-51.741 50.945-52.045 28.44-.304 51.741 22.506 52.045 50.946.304 28.44-22.505 51.74-50.945 52.044-28.44.304-51.741-22.505-52.045-50.945z" transform="rotate(-1.691 21274.65 -34859.635)" style="display:block" id="U"/><path fill="#0084C2" d="M732.862-124.382c4.759-25.473 29.266-42.264 54.739-37.505s42.265 29.265 37.506 54.738-29.266 42.265-54.739 37.506-42.265-29.266-37.506-54.739z" transform="rotate(1.691 -18635.287 35132.79)" style="display:block" id="V"/><path fill="#AFD5E0" d="M750.527-172.52c-2.856 6.832 153.036 310.917-59.97 264.614s1.1-278.504 4.916-287.632c3.816-9.128 19.234-11.375 34.437-5.019 15.203 6.356 24.433 18.909 20.617 28.037z" transform="rotate(-3.382 11259.665 -17392.113)" style="display:block" id="W"/><path fill="#CC348D" d="M745.232-224.137c-.304-28.44 22.505-51.741 50.945-52.045 28.44-.304 51.741 22.506 52.045 50.946.304 28.44-22.505 51.74-50.945 52.044-28.44.304-51.741-22.505-52.045-50.945z" transform="rotate(-5.989 6934.078 -9712.103)" style="display:block" id="X"/><path fill="#0084C2" d="M732.862-124.382c4.759-25.473 29.266-42.264 54.739-37.505s42.265 29.265 37.506 54.738-29.266 42.265-54.739 37.506-42.265-29.266-37.506-54.739z" transform="rotate(5.989 -4300.438 9982.162)" style="display:block" id="Y"/><path fill="#AFD5E0" d="M750.527-172.52c-2.856 6.832 153.036 310.917-59.97 264.614s1.1-278.504 4.916-287.632c3.816-9.128 19.234-11.375 34.437-5.019 15.203 6.356 24.433 18.909 20.617 28.037z" transform="rotate(-11.976 4080.956 -4798.09)" style="display:block" id="Z"/><path fill="#FFF" d="M638.033-169.849c-41.207 112.587-110.385 302.331-170.99 469.348-11.827 32.594-21.429 51.144-71.04 55.59-84.82 7.601-163.41 13.29-252.041 16.588-15.917.592-33.228-11.412-36.908-42.619-14.53-123.235-31.678-302.891-47.058-481.524-2.828-32.845 23.041-69.646 70.892-70.091 112.027-1.042 349.193-14.511 455.264-10.36 34.205 1.339 62.292 34.624 51.881 63.068z" transform="rotate(-145 914.887 215.665) scale(.5)" style="display:block" id="aa"/><path fill="#FFF" d="M615.125 597.383S518.546 449.096 506.719 481.69c-11.827 32.594-61.105-131.047-110.716-126.601-84.82 7.601-163.41 13.29-252.041 16.588-15.917.592-33.228-11.412-36.908-42.619-14.53-123.235-31.678-302.891-47.058-481.524-2.828-32.845 23.041-69.646 70.892-70.091 112.027-1.042 349.193-14.511 455.264-10.36 34.205 1.339 62.292 34.624 51.881 63.068C596.826-57.262 923.151 9.427 923.151 9.427s83.359 177.85 82.666 179.759c-.334.919-390.692 408.197-390.692 408.197z" transform="rotate(-145 914.887 215.665) scale(.5)" style="display:block" id="ad"/><path fill="#FFF" d="M412.599 78.212c-6.132 3.04-7.257 9.111-7.45 10.036l-2.078 9.955c-.804 3.852 1.678 7.626 5.543 8.43l7.348 1.528c7.924 1.648 15.683-3.417 17.331-11.313.495-2.371 3.308-16.424 3.308-16.424s-16.193-6.083-24.002-2.212zm-14.702-3.734c3.902 5.915 3.593 9.268 3.279 11.761-.411 3.262-1.961 10.655-1.961 10.655-.863 4.124-4.939 6.767-9.102 5.904l-7.271-1.508c-8.179-1.696-13.434-9.638-11.738-17.74.661-3.158 3.897-16.189 3.897-16.189s19.186 1.492 22.896 7.117z" transform="rotate(-.773 44097.058 -72757.563)" style="display:block" id="ab"/><path fill="#FFF" d="M412.599 78.212c-6.132 3.04-7.257 9.111-7.45 10.036l-2.078 9.955c-.804 3.852 1.678 7.626 5.543 8.43l7.348 1.528c7.924 1.648 15.683-3.417 17.331-11.313.495-2.371 3.308-16.424 3.308-16.424s-16.193-6.083-24.002-2.212zm-14.702-3.734c3.902 5.915 3.593 9.268 3.279 11.761-.411 3.262-1.961 10.655-1.961 10.655-.863 4.124-4.939 6.767-9.102 5.904l-7.271-1.508c-8.179-1.696-13.434-9.638-11.738-17.74.661-3.158 3.897-16.189 3.897-16.189s19.186 1.492 22.896 7.117z" transform="rotate(-.773 44097.058 -72757.563)" style="display:block" id="ac"/><path fill="#FFF" d="M638.033-169.849c-41.207 112.587-110.385 302.331-170.99 469.348-11.827 32.594-21.429 51.144-71.04 55.59-84.82 7.601-163.41 13.29-252.041 16.588-15.917.592-33.228-11.412-36.908-42.619-14.53-123.235-31.678-302.891-47.058-481.524-2.828-32.845 23.041-69.646 70.892-70.091 112.027-1.042 349.193-14.511 455.264-10.36 34.205 1.339 62.292 34.624 51.881 63.068z" transform="rotate(-145 914.887 215.665) scale(.5)" style="display:block" id="ae"/><path fill="#FFF" d="M615.125 597.383S518.546 449.096 506.719 481.69c-11.827 32.594-61.105-131.047-110.716-126.601-84.82 7.601-163.41 13.29-252.041 16.588-15.917.592-33.228-11.412-36.908-42.619-14.53-123.235-31.678-302.891-47.058-481.524-2.828-32.845 23.041-69.646 70.892-70.091 112.027-1.042 349.193-14.511 455.264-10.36 34.205 1.339 62.292 34.624 51.881 63.068C596.826-57.262 923.151 9.427 923.151 9.427s83.359 177.85 82.666 179.759c-.334.919-390.692 408.197-390.692 408.197z" transform="rotate(-145 914.887 215.665) scale(.5)" style="display:block" id="ah"/><path fill="#FFF" d="M412.599 78.212c-6.132 3.04-7.257 9.111-7.45 10.036l-2.078 9.955c-.804 3.852 1.678 7.626 5.543 8.43l7.348 1.528c7.924 1.648 15.683-3.417 17.331-11.313.495-2.371 3.308-16.424 3.308-16.424s-16.193-6.083-24.002-2.212zm-14.702-3.734c3.902 5.915 3.593 9.268 3.279 11.761-.411 3.262-1.961 10.655-1.961 10.655-.863 4.124-4.939 6.767-9.102 5.904l-7.271-1.508c-8.179-1.696-13.434-9.638-11.738-17.74.661-3.158 3.897-16.189 3.897-16.189s19.186 1.492 22.896 7.117z" transform="rotate(.172 -193496.228 331158.772)" style="display:block" id="af"/><path fill="#FFF" d="M412.599 78.212c-6.132 3.04-7.257 9.111-7.45 10.036l-2.078 9.955c-.804 3.852 1.678 7.626 5.543 8.43l7.348 1.528c7.924 1.648 15.683-3.417 17.331-11.313.495-2.371 3.308-16.424 3.308-16.424s-16.193-6.083-24.002-2.212zm-14.702-3.734c3.902 5.915 3.593 9.268 3.279 11.761-.411 3.262-1.961 10.655-1.961 10.655-.863 4.124-4.939 6.767-9.102 5.904l-7.271-1.508c-8.179-1.696-13.434-9.638-11.738-17.74.661-3.158 3.897-16.189 3.897-16.189s19.186 1.492 22.896 7.117z" transform="rotate(.172 -193496.228 331158.772)" style="display:block" id="ag"/><path fill="#FFF" d="M638.033-169.849c-41.207 112.587-110.385 302.331-170.99 469.348-11.827 32.594-21.429 51.144-71.04 55.59-84.82 7.601-163.41 13.29-252.041 16.588-15.917.592-33.228-11.412-36.908-42.619-14.53-123.235-31.678-302.891-47.058-481.524-2.828-32.845 23.041-69.646 70.892-70.091 112.027-1.042 349.193-14.511 455.264-10.36 34.205 1.339 62.292 34.624 51.881 63.068z" transform="rotate(-145 914.887 215.665) scale(.5)" style="display:block" id="ai"/><path fill="#FFF" d="M615.125 597.383S518.546 449.096 506.719 481.69c-11.827 32.594-61.105-131.047-110.716-126.601-84.82 7.601-163.41 13.29-252.041 16.588-15.917.592-33.228-11.412-36.908-42.619-14.53-123.235-31.678-302.891-47.058-481.524-2.828-32.845 23.041-69.646 70.892-70.091 112.027-1.042 349.193-14.511 455.264-10.36 34.205 1.339 62.292 34.624 51.881 63.068C596.826-57.262 923.151 9.427 923.151 9.427s83.359 177.85 82.666 179.759c-.334.919-390.692 408.197-390.692 408.197z" transform="rotate(-145 914.887 215.665) scale(.5)" style="display:block" id="al"/><path fill="#FFF" d="M412.599 78.212c-6.132 3.04-7.257 9.111-7.45 10.036l-2.078 9.955c-.804 3.852 1.678 7.626 5.543 8.43l7.348 1.528c7.924 1.648 15.683-3.417 17.331-11.313.495-2.371 3.308-16.424 3.308-16.424s-16.193-6.083-24.002-2.212zm-14.702-3.734c3.902 5.915 3.593 9.268 3.279 11.761-.411 3.262-1.961 10.655-1.961 10.655-.863 4.124-4.939 6.767-9.102 5.904l-7.271-1.508c-8.179-1.696-13.434-9.638-11.738-17.74.661-3.158 3.897-16.189 3.897-16.189s19.186 1.492 22.896 7.117z" transform="rotate(-5 7434.471 -10806.925)" style="display:block" id="aj"/><path fill="#FFF" d="M412.599 78.212c-6.132 3.04-7.257 9.111-7.45 10.036l-2.078 9.955c-.804 3.852 1.678 7.626 5.543 8.43l7.348 1.528c7.924 1.648 15.683-3.417 17.331-11.313.495-2.371 3.308-16.424 3.308-16.424s-16.193-6.083-24.002-2.212zm-14.702-3.734c3.902 5.915 3.593 9.268 3.279 11.761-.411 3.262-1.961 10.655-1.961 10.655-.863 4.124-4.939 6.767-9.102 5.904l-7.271-1.508c-8.179-1.696-13.434-9.638-11.738-17.74.661-3.158 3.897-16.189 3.897-16.189s19.186 1.492 22.896 7.117z" transform="rotate(-5 7434.471 -10806.925)" style="display:block" id="ak"/><filter id="b" filterUnits="objectBoundingBox" x="0%" y="0%" width="100%" height="100%"><feComponentTransfer in="SourceGraphic"><feFuncA type="table" tableValues="1.0 0.0"/></feComponentTransfer></filter><filter id="f" filterUnits="objectBoundingBox" x="0%" y="0%" width="100%" height="100%"><feComponentTransfer in="SourceGraphic"><feFuncA type="table" tableValues="1.0 0.0"/></feComponentTransfer></filter><filter id="i" filterUnits="objectBoundingBox" x="0%" y="0%" width="100%" height="100%"><feComponentTransfer in="SourceGraphic"><feFuncA type="table" tableValues="1.0 0.0"/></feComponentTransfer></filter><filter id="m" filterUnits="objectBoundingBox" x="0%" y="0%" width="100%" height="100%"><feComponentTransfer in="SourceGraphic"><feFuncA type="table" tableValues="1.0 0.0"/></feComponentTransfer></filter><filter id="p" filterUnits="objectBoundingBox" x="0%" y="0%" width="100%" height="100%"><feComponentTransfer in="SourceGraphic"><feFuncA type="table" tableValues="1.0 0.0"/></feComponentTransfer></filter><filter id="t" filterUnits="objectBoundingBox" x="0%" y="0%" width="100%" height="100%"><feComponentTransfer in="SourceGraphic"><feFuncA type="table" tableValues="1.0 0.0"/></feComponentTransfer></filter><g style="display:block" id="g"><path fill="#FFF" d="M638.033-169.849c-41.207 112.587 498.002-704.754 437.397-537.737-11.827 32.594-744.654 15.526-794.265 19.972-84.82 7.601-1090.514 743.028-1179.146 746.325-15.917.593 94.439 209.272 90.759 178.065-14.53-123.236 483.127-306.895 467.747-485.528-1.182-13.726 402.119 68.144 410.47 55.978 11.633-16.946 32.039-29.524 59.893-29.783 112.027-1.042 349.193-14.511 455.264-10.36 34.205 1.339 62.291 34.624 51.881 63.068z" transform="rotate(-145 914.887 215.665) scale(.5)"/><path fill-opacity="0" stroke="#9DEEC7" stroke-width="6.5" d="M1230.584 803.67C1279.75 769.375 824.5 949.5 897.22 898.474c14.192-9.958 309.445 207.2 331.04 219.606 36.92 21.212 659.74 8.42 696.987 32.488 6.69 4.322 21.337-112.796 13.894-98.96-29.391 54.642-285.89-12.858-330.821 64.717-3.453 5.96-145.156-143.233-152.065-140.645-9.625 3.604-21.59 2.904-33.072-4.979-46.183-31.7-147.183-94.2-189.437-126.32-13.625-10.359-15.583-32.046-3.162-40.71z"/></g><g style="display:block" id="d"><path fill="#DB8D74" d="M521.5 303c-16.5 11-42 12.5-66 13.5s-53.834 22.53-51 52c2.5 26 27.5 43 54.5 43.5 30.012.556 61-2.5 100.5-24s36.5-55.5 23.5-77-45-19-61.5-8z" transform="rotate(-6 6207.043 -8631.536)"/><path fill-opacity="0" stroke="#3D3D3D" stroke-width="2" d="M1486.56 848.357c-15.26 12.664-40.464 16.822-64.228 20.325-23.764 3.503-51.184 28.034-45.285 57.046 5.204 25.596 31.844 39.89 58.748 37.565 29.906-2.584 60.405-8.863 97.441-34.374 37.036-25.51 30.499-59.011 15.323-79.034-15.177-20.024-46.74-14.193-62-1.528z"/></g><g style="display:block" id="n"><path fill="#FFF" d="M638.033-169.849c-41.207 112.587 498.002-704.754 437.397-537.737-11.827 32.594-744.654 15.526-794.265 19.972-84.82 7.601-1090.514 743.028-1179.146 746.325-15.917.593 94.439 209.272 90.759 178.065-14.53-123.236 483.127-306.895 467.747-485.528-1.182-13.726 402.119 68.144 410.47 55.978 11.633-16.946 32.039-29.524 59.893-29.783 112.027-1.042 349.193-14.511 455.264-10.36 34.205 1.339 62.291 34.624 51.881 63.068z" transform="rotate(-145 914.887 215.665) scale(.5)"/><path fill-opacity="0" stroke="#9DEEC7" stroke-width="6.5" d="M1230.584 803.67C1279.75 769.375 824.5 949.5 897.22 898.474c14.192-9.958 309.445 207.2 331.04 219.606 36.92 21.212 659.74 8.42 696.987 32.488 6.69 4.322 21.337-112.796 13.894-98.96-29.391 54.642-285.89-12.858-330.821 64.717-3.453 5.96-145.156-143.233-152.065-140.645-9.625 3.604-21.59 2.904-33.072-4.979-46.183-31.7-147.183-94.2-189.437-126.32-13.625-10.359-15.583-32.046-3.162-40.71z"/></g><g style="display:block" id="k"><path fill="#DB8D74" d="M521.5 303c-16.5 11-42 12.5-66 13.5s-53.834 22.53-51 52c2.5 26 27.5 43 54.5 43.5 30.012.556 61-2.5 100.5-24s36.5-55.5 23.5-77-45-19-61.5-8z" transform="rotate(-6 6207.043 -8631.536)"/><path fill-opacity="0" stroke="#3D3D3D" stroke-width="2" d="M1486.56 848.357c-15.26 12.664-40.464 16.822-64.228 20.325-23.764 3.503-51.184 28.034-45.285 57.046 5.204 25.596 31.844 39.89 58.748 37.565 29.906-2.584 60.405-8.863 97.441-34.374 37.036-25.51 30.499-59.011 15.323-79.034-15.177-20.024-46.74-14.193-62-1.528z"/></g><g style="display:block" id="u"><path fill="#FFF" d="M638.033-169.849c-41.207 112.587 498.002-704.754 437.397-537.737-11.827 32.594-744.654 15.526-794.265 19.972-84.82 7.601-1090.514 743.028-1179.146 746.325-15.917.593 94.439 209.272 90.759 178.065-14.53-123.236 483.127-306.895 467.747-485.528-1.182-13.726 402.119 68.144 410.47 55.978 11.633-16.946 32.039-29.524 59.893-29.783 112.027-1.042 349.193-14.511 455.264-10.36 34.205 1.339 62.291 34.624 51.881 63.068z" transform="rotate(-145 914.887 215.665) scale(.5)"/><path fill-opacity="0" stroke="#9DEEC7" stroke-width="6.5" d="M1230.584 803.67C1279.75 769.375 824.5 949.5 897.22 898.474c14.192-9.958 309.445 207.2 331.04 219.606 36.92 21.212 659.74 8.42 696.987 32.488 6.69 4.322 21.337-112.796 13.894-98.96-29.391 54.642-285.89-12.858-330.821 64.717-3.453 5.96-145.156-143.233-152.065-140.645-9.625 3.604-21.59 2.904-33.072-4.979-46.183-31.7-147.183-94.2-189.437-126.32-13.625-10.359-15.583-32.046-3.162-40.71z"/></g><g style="display:block" id="r"><path fill="#DB8D74" d="M521.5 303c-16.5 11-42 12.5-66 13.5s-53.834 22.53-51 52c2.5 26 27.5 43 54.5 43.5 30.012.556 61-2.5 100.5-24s36.5-55.5 23.5-77-45-19-61.5-8z" transform="translate(975 551.5)"/><path fill-opacity="0" stroke="#3D3D3D" stroke-width="2" d="M1496.5 854.5c-16.5 11-42 12.5-66 13.5s-53.834 22.53-51 52c2.5 26 27.5 43 54.5 43.5 30.012.556 61-2.5 100.5-24s36.5-55.5 23.5-77-45-19-61.5-8z"/></g><linearGradient id="bj" spreadMethod="pad" gradientUnits="userSpaceOnUse" x1="475" y1="-110.003" x2="566.067" y2="-38.825"><stop offset="0%" stop-color="#FFA75F"/><stop offset="50%" stop-color="#FFB78B"/><stop offset="100%" stop-color="#FFC7B8"/></linearGradient><linearGradient id="bf" spreadMethod="pad" gradientUnits="userSpaceOnUse" x1="475" y1="-110.003" x2="566.067" y2="-38.825"><stop offset="0%" stop-color="#FFA75F"/><stop offset="50%" stop-color="#FFB78B"/><stop offset="100%" stop-color="#FFC7B8"/></linearGradient><linearGradient id="bb" spreadMethod="pad" gradientUnits="userSpaceOnUse" x1="475" y1="-110.003" x2="566.067" y2="-38.825"><stop offset="0%" stop-color="#FFA75F"/><stop offset="50%" stop-color="#FFB78B"/><stop offset="100%" stop-color="#FFC7B8"/></linearGradient></defs><g clip-path="url(#am)"><g clip-path="url(#au)" style="display:block" transform="matrix(-1 0 0 1 1916 -23.5)"><g style="display:block"><path fill="#58CC02" d="M1230.485 803.743c49.265-34.368 132.015-92.243 204.643-143.202 2.002-1.405 3.906-2.71 5.76-3.878 4.8-3.029 9.266-5.15 14.243-5.77 6.718-.835 14.365 1.067 25.027 7.176 36.967 21.181 70.905 41.494 108.168 65.572 4.658 3.01 6.174 7.172 6.757 10.689.983 5.927-.897 11.436-3.946 17.277-3.012 5.768-6.232 11.558-9.996 18.377C1550.5 825.5 1502 911.25 1472.57 961.824c-4.698 8.072-10.57 15.176-16.747 21.73-4.887 5.184-14.269 14.656-20.551 18.658-11.597 7.387-24.773 4.218-34.089-2.01C1359.001 972 1261.5 906.5 1219.247 875.38c-8.648-6.368-11.976-19.711-10.496-25.73 2.25-9.15 4.91-17.376 8.08-24.263 3.17-6.887 7.327-17.231 13.654-21.644z"/><path stroke="#58CC02" stroke-width="6.5" d="M1230.485 803.743c49.265-34.368 132.015-92.243 204.643-143.202 2.002-1.405 3.906-2.71 5.76-3.878 4.8-3.029 9.266-5.15 14.243-5.77 6.718-.835 14.365 1.067 25.027 7.176 36.967 21.181 70.905 41.494 108.168 65.572 4.658 3.01 6.174 7.172 6.757 10.689.983 5.927-.897 11.436-3.946 17.277-3.012 5.768-6.232 11.558-9.996 18.377C1550.5 825.5 1502 911.25 1472.57 961.824c-4.698 8.072-10.57 15.176-16.747 21.73-4.887 5.184-14.269 14.656-20.551 18.658-11.597 7.387-24.773 4.218-34.089-2.01C1359.001 972 1261.5 906.5 1219.247 875.38c-8.648-6.368-11.976-19.711-10.496-25.73 2.25-9.15 4.91-17.376 8.08-24.263 3.17-6.887 7.327-17.231 13.654-21.644z" fill="none"/><path fill="#FFF" d="M1230.584 803.67c49.166-34.295 131.916-92.17 204.637-143.195 14.192-9.958 23.444-14.802 45.039-2.395 36.92 21.212 70.74 41.42 107.987 65.488 6.69 4.322 10.337 14.203 2.894 28.04-29.391 54.642-73.89 133.142-118.821 210.717-8.262 14.263-29.411 21.917-49.137 8.376-46.183-31.7-147.183-94.2-189.437-126.32-13.625-10.359-15.583-32.046-3.162-40.71z"/><path stroke="#9DEEC7" stroke-width="6.5" d="M1230.584 803.67c49.166-34.295 131.916-92.17 204.637-143.195 14.192-9.958 23.444-14.802 45.039-2.395 36.92 21.212 70.74 41.42 107.987 65.488 6.69 4.322 10.337 14.203 2.894 28.04-29.391 54.642-73.89 133.142-118.821 210.717-8.262 14.263-29.411 21.917-49.137 8.376-46.183-31.7-147.183-94.2-189.437-126.32-13.625-10.359-15.583-32.046-3.162-40.71z" fill="none"/></g><g mask="url(#av)" style="display:block"><g clip-path="url(#aw)"><path fill="#A175F9" d="M313.521 147.147c-2.496-1.125-3.599-4.01-2.476-6.47l35.505-79.229c12.52-26.807 39.038-43.041 67.437-37.268 27.928 5.677 46.166 30.165 46.598 59.638l2.639 83.804c.083 2.611-1.929 4.824-4.581 5.046-10.243.856-36.829-.04-68.712-4.643-33.35-4.817-64.918-15.702-76.41-20.878z" transform="rotate(-2.585 13713.032 -21326.617)" style="display:block"/><g style="display:block"><path fill="#A570FF" d="M1337.7 765.22c3.109-6.818 13.53-9.748 20.348-6.64 6.819 3.11 12.79 14.153 9.68 20.972 0 0-6.91 18.58-13.07 29.739-5.417 9.814-13.285 20.995-13.285 20.995-6.215 7.275-11.158 9.825-17.977 6.716-6.818-3.109-9.826-11.157-6.716-17.977 0 0 6.252-13.339 10.432-24.038 4.18-10.699 10.588-29.767 10.588-29.767z"/><path fill="#593F86" d="M1337.7 765.22s8.54-30.335 11.292-56.704l36.326 6.466c-.902 25.708-16.892 63.006-16.892 63.006-3.044 1.486-13.491 4.018-20.39.873-6.334-2.889-9.514-10.583-10.336-13.64z"/><path fill="#FFC6B7" d="M1388.108 761.415c-.713 5.485-5.739 9.354-11.224 8.64-5.485-.713-9.354-5.737-8.64-11.222.712-5.485 5.738-9.355 11.223-8.641 5.485.713 9.354 5.738 8.64 11.223z"/><path fill="#593F86" d="m1367.19 705.122-50.514 23.78c-11.917 5.61-9.237 23.285 3.809 25.11l78.794 11.014c13.084 1.83 20.492-14.52 10.491-23.152l-42.58-36.752z"/><path fill="#FFC6B7" d="M1362.123 736.043c-6.47-5.33-9.33-9.074-14.04-9.687-4.623-.6-8.908 2.06-10.572 6.193 5.051.726 17.352 2.463 24.612 3.494z"/></g><path fill="#FFC6B7" d="m450.407 91.596 4.291.88c6.08 1.246 9.998 7.024 8.752 12.907-1.246 5.883-7.186 9.642-13.266 8.396l-4.291-.879c-6.08-1.246-9.999-7.024-8.752-12.907 1.247-5.883 7.186-9.643 13.266-8.397zm-33.688-59.282c24.256 5.058 40.846 27.56 38.541 52.277l-5.116 39.92c-2.524 13.181-12.859 21.445-25.152 20.885-12.066-.55-19.554-1.305-35.019-2.624-15.465-1.319-26.56-9.131-26.56-9.131-12.999-2.711-21.339-15.466-18.628-28.489a24.11 24.11 0 0 1 .936-3.302l13.566-37.444c8.519-23.515 32.991-37.189 57.432-32.092z" transform="rotate(1.415 -22446.737 39984.494)" style="display:block"/><path fill="#FFF" d="M412.599 78.212c-6.132 3.04-7.257 9.111-7.45 10.036l-2.078 9.955c-.804 3.852 1.678 7.626 5.543 8.43l7.348 1.528c7.924 1.648 15.683-3.417 17.331-11.313.495-2.371 3.308-16.424 3.308-16.424s-16.193-6.083-24.002-2.212zm-14.702-3.734c3.902 5.915 3.593 9.268 3.279 11.761-.411 3.262-1.961 10.655-1.961 10.655-.863 4.124-4.939 6.767-9.102 5.904l-7.271-1.508c-8.179-1.696-13.434-9.638-11.738-17.74.661-3.158 3.897-16.189 3.897-16.189s19.186 1.492 22.896 7.117z" transform="rotate(.172 -193496.228 331158.772)" style="display:block"/><g mask="url(#ax)" style="display:block"><path fill="#3D3D3D" d="M1425.22 674.853c-.846 3.768-4.21 5.95-7.72 5.195-3.508-.755-5.694-4.31-4.988-7.926.707-3.617 1.93-9.765 1.93-9.765l12.941 2.113s-1.316 6.614-2.163 10.383zm-32.661-5.882c-.756 4.278-4.211 5.95-7.72 5.195-3.509-.754-5.636-4.536-4.988-7.926.663-3.474.732-3.155.732-3.155l12.497 2.18s.234-.571-.521 3.706z"/></g><g mask="url(#ay)" style="display:block"><path fill="#A570FF" d="m1432.333 660.605-2.603 16.336-70.353-13.148 3.756-17.541 69.2 14.353z"/></g><path fill="#FFC6B7" d="M392.238 134.582a27.84 27.84 0 0 1 .557-7.168c3.172-15.155 18.137-24.871 33.426-21.7 4.08.846 7.06 2.538 9.233 4.487 5.034 4.515-43.121 26.188-43.216 24.381z" transform="rotate(.172 -193496.228 331158.772)" style="display:block"/><path fill="#EE9583" d="M404.942 119.172c5.947-7.414 11.462-9.776 16.117-6.04.85.682.993 1.938.319 2.804a1.942 1.942 0 0 1-2.757.333c-2.469-1.981-5.872-.523-10.64 5.42a1.942 1.942 0 0 1-2.762.291 2.018 2.018 0 0 1-.277-2.808zm-7.456-4.456c3.258.67 6.439-1.349 7.106-4.511.667-3.162-3.654-11.853-3.654-11.853l-.905.784c-2.011 1.78-6.716 6.163-7.239 8.641-.667 3.162 1.434 6.268 4.692 6.939z" transform="rotate(1.415 -22702.753 40557.2)" style="display:block"/><path fill="#A570FF" d="M317.487 151.331c14.939-40.032 33.041-127.467 89.887-122.518.776.068 3.511.844 3.971 1.592 6.887 11.194-19.43 96.465-23.961 117.859-.547 2.583-2.975 3.862-5.614 3.912-18.096.34-50.047-.533-64.283-.845zM428.486 34.052c17.261 6.726 29.208 23.333 28.949 47.181 0 0-19.527-3.082-24.431-4.33-19.389-4.262-23.638-21.446-23.499-41.51l-6.881-6.358c8.329-.365 18.488 2.143 25.862 5.017z" transform="rotate(1.415 -22446.737 39984.494)" style="display:block"/></g></g><g mask="url(#az)" style="display:block"><g clip-path="url(#aA)"><path fill="#E6A000" d="M0-59.292c32.723 0 59.292 26.569 59.292 59.292S32.723 59.292 0 59.292-59.292 32.723-59.292 0-32.723-59.292 0-59.292z" transform="matrix(.38973 .12663 -.0618 .19021 1493.225 685.26)" style="display:block"/><g style="display:block"><path fill="#FFC700" d="M1479.054 669.314c9.753-2.106 24.531 2.008 33.007 9.188 8.475 7.18 7.44 14.708-2.315 16.814-9.753 2.106-24.531-2.007-33.007-9.188-8.475-7.18-7.439-14.708 2.315-16.814z"/><path fill="#FFE700" d="M1506.04 676.633a28.068 28.068 0 0 1 3.133 2.286c1.821 1.542 3.122 3.104 3.912 4.604.165.313-.197.356-.652.456-4.6 1.008-22.786 4.933-25.267 5.457-.34.072-.928.213-1.803-.188-2.292-1.052-4.25-2.435-5.976-3.898a19.501 19.501 0 0 1-2.538-2.554c-.142-.175-.415-.45.61-.672 4.43-.957 20.728-4.438 26.91-5.773.817-.177 1.297.045 1.672.282zm-24.7-5.462c5.383-1.163 12.583-.078 18.92 2.509.45.184 1.581.769.25 1.082-1.333.313-21.493 4.574-23.888 5.091-1.403.303-1.725-.438-1.795-.671-1.11-3.721 1.123-6.847 6.512-8.011z"/></g><path fill="#E6A000" d="M0-59.292c32.723 0 59.292 26.569 59.292 59.292S32.723 59.292 0 59.292-59.292 32.723-59.292 0-32.723-59.292 0-59.292z" transform="matrix(.4813 .24524 -.13166 .2584 1514.025 734.632)" style="display:block"/><g style="display:block"><path fill="#FFC700" d="M1499.117 709.767c13.434-1.32 31.865 7.007 41.167 18.597 9.302 11.59 5.953 22.057-7.48 23.377-13.434 1.32-31.865-7.007-41.167-18.597-9.302-11.59-5.953-22.057 7.48-23.377z"/><path fill="#FFE700" d="M1532.827 724.7a34.675 34.675 0 0 1 3.535 3.763c1.998 2.49 3.304 4.919 3.953 7.173.136.47-.354.47-.98.534-6.34.643-31.386 3.102-34.8 3.422-.468.043-1.283.143-2.332-.573-2.75-1.876-4.97-4.164-6.865-6.525-1.101-1.373-1.992-2.727-2.679-4.043-.142-.271-.43-.707.982-.846 6.102-.6 28.537-2.752 37.053-3.588 1.125-.111 1.7.283 2.133.682zm-31.18-11.92c7.415-.728 16.636 2.03 24.322 6.762.546.337 1.887 1.356.046 1.572-1.841.217-29.584 2.815-32.882 3.14-1.932.19-2.162-.914-2.193-1.255-.487-5.449 3.284-9.489 10.706-10.218z"/></g><path fill="#E6A000" d="M0-59.292c32.723 0 59.292 26.569 59.292 59.292S32.723 59.292 0 59.292-59.292 32.723-59.292 0-32.723-59.292 0-59.292z" transform="matrix(.6486 .38971 -.22476 .37406 1500.135 794.898)" style="display:block"/><g style="display:block"><path fill="#FFC700" d="M1482.475 757.503c19.29-1.18 44.282 12.171 55.821 29.82 11.54 17.65 5.256 32.914-14.034 34.095-19.29 1.18-44.282-12.171-55.821-29.82-11.54-17.65-5.256-32.914 14.034-34.095z"/><path fill="#FFE700" d="M1528.227 781.484a46.427 46.427 0 0 1 4.478 5.761c2.48 3.791 3.983 7.453 4.578 10.82.125.703-.572.674-1.472.732-9.107.587-45.072 2.785-49.973 3.061-.67.038-1.843.139-3.23-.98-3.636-2.926-6.46-6.434-8.81-10.029-1.367-2.09-2.437-4.14-3.222-6.123-.162-.409-.509-1.069 1.52-1.193 8.761-.536 40.97-2.43 53.198-3.18 1.616-.098 2.376.517 2.933 1.131zm-42.595-19.386c10.65-.651 23.358 3.948 33.597 11.378.727.528 2.484 2.11-.165 2.324-2.648.214-42.467 2.464-47.203 2.754-2.775.17-2.942-1.473-2.935-1.979.099-8.074 6.049-13.825 16.706-14.477z"/></g><path fill="#E6A000" d="M0-59.292c32.723 0 59.292 26.569 59.292 59.292S32.723 59.292 0 59.292-59.292 32.723-59.292 0-32.723-59.292 0-59.292z" transform="matrix(.68536 .4799 -.32116 .45866 1420.606 831.336)" style="display:block"/><g style="display:block"><path fill="#FFC700" d="M1406.454 784.874c22.482-1.404 49.164 15.042 59.597 36.735 10.432 21.692.663 40.415-21.819 41.82-22.482 1.404-49.164-15.043-59.597-36.735-10.432-21.692-.663-40.416 21.819-41.82z"/><path fill="#FFE700" d="M1455.376 814.418a47.284 47.284 0 0 1 4.228 7.082c2.24 4.66 3.377 9.157 3.511 13.292.028.863-.772.826-1.822.895-10.618.7-52.534 3.315-58.242 3.643-.78.044-2.152.165-3.572-1.21-3.72-3.602-6.406-7.914-8.531-12.332-1.236-2.57-2.135-5.088-2.716-7.525-.12-.502-.412-1.313 1.952-1.46 10.21-.638 47.738-2.89 61.989-3.78 1.883-.118 2.66.639 3.203 1.395zm-46.03-23.896c12.412-.776 26.34 4.9 36.949 14.044.754.65 2.524 2.596-.572 2.852-3.095.257-49.473 2.927-54.992 3.272-3.235.202-3.157-1.815-3.067-2.436 1.442-9.91 9.261-16.956 21.683-17.732z"/></g><path fill="#E6A000" d="M0-59.292c32.723 0 59.292 26.569 59.292 59.292S32.723 59.292 0 59.292-59.292 32.723-59.292 0-32.723-59.292 0-59.292z" transform="matrix(.81915 .57358 -.43018 .61436 1303.57 843.462)" style="display:block"/><g style="display:block"><path fill="#FFC700" d="M1289.189 784.783c28.033-3.338 60.076 16.103 71.57 43.422 11.493 27.32-1.915 52.173-29.948 55.511-28.033 3.339-60.076-16.102-71.57-43.422-11.493-27.32 1.915-52.173 29.948-55.511z"/><path fill="#FFE700" d="M1347.981 819.638a53.725 53.725 0 0 1 4.773 8.863c2.47 5.869 3.577 11.603 3.463 16.936-.023 1.113-1.016 1.12-2.325 1.28-13.243 1.624-65.508 7.844-72.623 8.654-.973.11-2.685.36-4.357-1.32-4.378-4.402-7.424-9.79-9.765-15.355-1.362-3.236-2.308-6.43-2.865-9.538-.115-.64-.423-1.669 2.524-2.02 12.733-1.516 59.52-6.969 77.29-9.085 2.347-.28 3.261.645 3.885 1.585zm-55.58-27.754c15.475-1.843 32.399 4.545 44.963 15.641.892.788 2.96 3.183-.904 3.724-3.864.542-61.677 7.135-68.56 7.954-4.032.48-3.8-2.13-3.645-2.939 2.463-12.903 12.658-22.536 28.146-24.38z"/></g></g></g><path stroke="#9DEEC7" stroke-width="13" d="M396.003 355.089c-84.82 7.601-163.41 13.29-252.041 16.588-15.917.592-33.228-11.412-36.908-42.619-14.53-123.235-31.678-302.891-47.058-481.524-2.828-32.845 23.041-69.646 70.892-70.091 112.027-1.042 349.193-14.511 455.264-10.36" fill="none" transform="rotate(-145 914.887 215.665) scale(.5)" style="display:block"/></g><g clip-path="url(#aM)" style="display:block" transform="matrix(-1 0 0 1 1976 -43.5)"><g style="display:block"><path stroke-linecap="round" stroke-miterlimit="10" stroke="#CC348D" stroke-width="23" d="M1750.519 386.652c-.895-15.136 30.272-14.772 47.61 2.982" fill="none"/><path fill="#C6775C" d="M1765.655 385.757c.494 8.36-5.882 15.536-14.242 16.03-8.36.494-15.536-5.881-16.03-14.24-.494-8.36 5.882-15.538 14.241-16.032 8.36-.494 15.537 5.883 16.031 14.242z"/><path fill="#5EC6FF" d="M1784.698 417.473c-3.271 9.337-18.53 12.49-34.081 7.042-15.552-5.448-25.506-17.435-22.235-26.772 3.27-9.337 19.2-25.25 38.136-18.616 19.072 6.681 21.45 29.009 18.18 38.346z"/><path fill="#0084C2" d="M1784.698 417.473c-3.271 9.337-18.53 12.49-34.081 7.042-15.552-5.448-25.506-17.435-22.235-26.772 3.27-9.337 18.529-12.49 34.08-7.042 15.552 5.448 25.506 17.435 22.236 26.772z"/><path fill="#FFCC76" d="M1762.462 390.701c-8.821-3.09-17.546-3.41-24.044-1.407-.528 5.821-2.135 13.345-2.369 15.218-.018.121-.1.23-.12.354-1.095 6.6 1.854 12.831 8.139 14.621 4.552 1.297 9.233-.267 12.152-3.612a13.202 13.202 0 0 0 6.412 4.1c7.052 2.008 14.397-2.08 16.406-9.131.976-3.427 1.384-4.821 2.725-6.753-3.899-5.421-10.75-10.394-19.3-13.39z"/></g><g mask="url(#aN)" style="display:block"><path stroke-linecap="round" stroke-miterlimit="10" stroke="#FFCC76" stroke-width="4.148" d="M1807.92 313.1c-15.296 5.14-37.12 26.65-28.324 31.986 8.795 5.336 20.613-24.069 44.246-15.894m-19.501 7.448c-11.906 5.381-20.948 18.886-33.78 38.426m35.337-32.457c-5.441 4.745-8.274 7.144-15.042 16.274-6.767 9.13-15.107 17.854-19.414 29.886" fill="none"/></g><path fill="#0084C2" d="M732.862-124.382c4.759-25.473 29.266-42.264 54.739-37.505s42.265 29.265 37.506 54.738-29.266 42.265-54.739 37.506-42.265-29.266-37.506-54.739z" transform="rotate(1.691 -18635.287 35132.79)" style="display:block"/><g mask="url(#aO)" style="display:block"><path fill="#006AAD" d="M1855.703 507.335c-17.227-.612-34.365-2.31-50.411-18.014l-6.939.797c19.301 20.146 40.087 22.117 51.593 21.955a47.202 47.202 0 0 0 5.757-4.738z"/><path fill="#C6775C" d="M1790.092 418.792c3.638-16.219 19.686-26.458 35.927-22.925 16.315 3.55 26.665 19.654 23.116 35.97l-7.746 35.604c-.882 4.05-3.584 7.474-7.338 9.232-15.466 7.24-27.615 12.309-32.203 14.184a3.209 3.209 0 0 1-3.516-.707c-8.605-8.75-13.985-19.004-16.427-24.337-1.077-2.35-1.243-4.984-.677-7.507l8.864-39.514z"/><path stroke-linecap="round" stroke="#FFF" stroke-width="20.813" d="m1791.236 460.625 2.178-8.54m20.95 14.1 1.352-6.223" fill="none"/><path stroke-linecap="round" stroke="#3D3D3D" stroke-width="9.4" d="M1812.58 463.639s-.984 2.547-1.058 5.078m-19.245-11.293s-.351 3.303-1.623 5.63" fill="none"/><path fill="#FFF" d="M1786.985 461.104c1.757.788 2.73 3.358 1.814 5.08-3.776 7.46-9.512-7.34-1.814-5.08zm19.809 6.698c2.07.485 3.501 2.401 2.79 4.617-2.424 4.803-6.526-3.835-2.79-4.617z"/><path fill="#C6775C" d="M1794 449.523a6.295 6.295 0 1 1 12.257 2.862 6.295 6.295 0 0 1-12.257-2.862z"/></g><path stroke-linecap="round" stroke="#3D3D3D" stroke-width="46.998" d="M806.508-160.321c-17.756 5.031-37.78.251-40.643-7.859" fill="none" transform="translate(1032.39 588.355)" style="display:block"/><path fill="#FFF" d="m756.151-159.828.792-1.802a5.805 5.805 0 0 1 10.63 4.672l-.792 1.802a5.805 5.805 0 0 1-10.63-4.672z" transform="translate(1032.514 588.48)" style="display:block"/><path fill="#CC348D" d="M745.232-224.137c-.304-28.44 22.505-51.741 50.945-52.045 28.44-.304 51.741 22.506 52.045 50.946.304 28.44-22.505 51.74-50.945 52.044-28.44.304-51.741-22.505-52.045-50.945z" transform="rotate(-1.691 21274.65 -34859.635)" style="display:block"/><path stroke-linecap="round" stroke-linejoin="round" stroke="#CC348D" stroke-width="23" d="M828.223-200.028s8.426 5.333 7.019 10.364c-3.392 12.125-30.207 15.5-30.207 15.5" fill="none" transform="rotate(-1.691 21274.65 -34859.635)" style="display:block"/><g mask="url(#aP)" style="display:block"><path fill="#0084C2" d="M1762.485 352.966c2.842-24.786 19.06-49.27 60.855-50.821 41.794-1.552 80.419 16.966 72.74 42.107-5.98 19.577-26.975 34.344-73.49 31.827-44.37-2.402-60.405-20.498-60.105-23.113z"/><path stroke="#00448E" stroke-width="11" d="M1762.485 352.966c2.842-24.786 19.06-49.27 60.855-50.821 41.794-1.552 80.419 16.966 72.74 42.107-5.98 19.577-26.975 34.344-73.49 31.827-44.37-2.402-60.405-20.498-60.105-23.113z" fill="none"/></g><g style="display:block"><path stroke-linecap="round" stroke-linejoin="round" stroke="#0084C2" stroke-width="20" d="M1822.368 325.916s-33.668-14.105-43.563-23.319c3.111-11.787 20.488-27.83 29.536-38.14" fill="none"/><path stroke-linecap="round" stroke-linejoin="round" stroke="#CC348D" stroke-width="14" d="M1829.45 256.96c-1.796-5.73-5.913-12.388-9.605-15.538" fill="none"/></g><g style="display:block"><path stroke-linecap="round" stroke-linejoin="round" stroke="#0084C2" stroke-width="20" d="M1822.611 325.858s-55.749 3.06-96.896-22.305" fill="none"/><path stroke-linecap="round" stroke-linejoin="round" stroke="#CC348D" stroke-width="14" d="M1709.974 285.93c-2.466 2.293-8.5 8.916-11.914 14.264" fill="none"/></g><g style="display:block"><path stroke-linecap="round" stroke-linejoin="round" stroke="#DAAF83" stroke-width="5" d="m1869.093 427.979-59.797-2.766m55.888 12.506-55.993-9.795" fill="none"/><path stroke-linecap="round" stroke-linejoin="round" stroke="#C6775C" stroke-width="9" d="m1836.631 426.991-9.601 6.861" fill="none"/><path fill="#C6775C" d="m1838.363 431.351 4.798-3.523a8.535 8.535 0 0 0 1.83-11.93l-3.117-4.245a8.534 8.534 0 0 0-11.93-1.829l-4.798 3.523a8.534 8.534 0 0 0-1.83 11.93l3.116 4.244a8.536 8.536 0 0 0 11.931 1.83z"/></g></g><g clip-path="url(#bc)" style="display:block" transform="matrix(-1 0 0 1 1916 -23.5)"><g style="display:block"><path stroke-linecap="round" stroke-linejoin="round" stroke="#FFC6B7" stroke-width="12" d="M1465.18 596.746c-3.014-1.827-13.413-3.25-19.922-2.559m-5.117 7.858c7.082.545 17.247.235 22.538 1.807m-20.314 12.589c10.134-5.01 17.206-6.217 22.492-5.33m-2.665 17.31s2.836-9.189 8.549-16.754" fill="none"/><path stroke-linecap="round" stroke-linejoin="round" stroke="#FFC6B7" stroke-width="36" d="M1492.008 595.196c-9.976 2.793-14.612 4.29-22.908 7.858" fill="none"/><path stroke-linecap="round" stroke-linejoin="round" stroke="#33E3FF" stroke-width="36" d="M1509.662 590.905c-8.897 1.22-19.799 4.698-28.328 7.668" fill="none"/></g><path fill="#33E3FF" d="M632.285-113.56c11.14-27.492-26.948-59.089-59.045-46.434-30.537 11.53-44.137 22.171-44.137 22.171-12.936 8.46 81.838 97.934 87.826 72.562 0 0 4.572-22.698 15.356-48.299z" transform="rotate(-.487 68177.3 -114872.035)" style="display:block"/><path stroke-linecap="round" stroke="#393939" stroke-width="27" d="m683.25 34.5 4.25 3.5" fill="none" transform="rotate(-23.967 2413.989 -1997.284)" style="display:block"/><path stroke-linecap="round" stroke-linejoin="round" stroke="#393939" stroke-width="23" d="m613.75 94-8.25 3.75" fill="none" transform="rotate(-21.476 2522.619 -2227.176)" style="display:block"/><path fill="#FFC7B8" d="M552.811-154.957c-14.873-8.982-34.962-11.237-52.179-1.891l-28.256 15.339a51.11 51.11 0 0 0-25.616 34.316l-7.98 37.63C434.57-49.714 440-30 458.986-17.428 477.972-4.856 510.5 12 528.501 43.852c6.897 12.204 42.974 11.603 54.934 7.15l38.691-9.376A38.335 38.335 0 0 0 651.93 8.839l6.319-51.72c-.568-6.318-6.973-19.296-11.519-26.102C621-107.5 590-132.5 552.811-154.957z" transform="rotate(-5.183 7365.859 -10627.022)" style="display:block"/><path fill="#EE9583" d="M523.147-6.062c2.236 3.145 5.699 3.51 8.324 1.644 2.625-1.866 3.418-5.255 1.182-8.401-2.236-3.145-9.483-4.798-10.202-4.287-.718.51-1.54 7.899.696 11.044z" transform="rotate(-5.183 7360.671 -10625.227)" style="display:block"/><g style="display:block"><path fill="#FFF" d="M1489.919 547.038c-7.814-4.785-20.004-3.48-25.888 2.77-4.86 5.164-3.671 11.962 2.782 15.915l9.672 5.923c7.813 4.785 20.003 3.48 25.887-2.772 4.86-5.163 3.673-11.962-2.78-15.914l-9.673-5.922zm30.924-22.872c-7.783-4.766-19.025-2.885-24.883 4.163-5.653 6.803-4.174 15.899 3.339 20.499l8.847 5.417c7.783 4.767 19.027 2.884 24.884-4.163 5.654-6.803 4.173-15.898-3.34-20.498l-8.847-5.418z"/><path fill="#FFC7B8" d="M1535.847 533.752c-5.375 4.384-11.586 17.23-13.223 26.521l16.798-13.7c1.048-6.1 1.8-17.205-3.575-12.821z"/><path fill="#EE9583" d="M1531.715 552.511a2.223 2.223 0 0 0-1.83 2.554c.37 2.234.338 4.42-.323 6.489-.654 2.046-1.97 4.12-4.388 6.082a2.219 2.219 0 0 0-.325 3.122 2.22 2.22 0 0 0 3.124.326c3.035-2.463 4.88-5.242 5.82-8.178.93-2.913.924-5.843.475-8.565a2.221 2.221 0 0 0-2.553-1.83z"/><path fill="#4B4B4B" d="M1506.511 536.686a4.246 4.246 0 0 0 2.024 3.229c1.987 1.217 4.562.63 5.75-1.31.12-.197.221-.399.305-.607l4.89 2.853c3.505 2.043 4.24 6.222 1.645 9.344-2.607 3.136-7.587 4.016-11.108 1.962l-5.947-3.469c-3.504-2.044-4.24-6.222-1.646-9.343 1.057-1.273 2.505-2.174 4.087-2.659zm-15.74 15.492c.17.087.333.181.495.28l5.122 3.135c3.78 2.315 4.517 6.286 1.733 9.339-2.423 2.656-7.564 3.234-10.855 1.22l-7.359-4.506c-3.138-1.92-3.75-5.215-1.438-7.749 1.029-1.128 2.472-1.94 4.08-2.403a4.503 4.503 0 0 0 2.032 2.71c2.046 1.252 4.643.736 5.799-1.152.17-.279.3-.573.392-.874z"/></g><g mask="url(#bd)" style="display:block"><g clip-path="url(#be)" transform="rotate(.878 1651.41 863.484) scale(1.00759)"><g style="display:block"><path fill="#FFC7B8" d="M1531.072 472.95c5.547 1.538 10.722-2.436 11.558-8.872.835-6.437-2.985-12.9-8.532-14.438-5.547-1.538-10.722 2.436-11.557 8.872-.836 6.437 2.985 12.9 8.531 14.438z"/><path fill="#0084C2" d="M1476.51 610.578s56.633 59.035 75.738 52.288l84.852-53.299c15.31-5.119 16.846-112.947 8.034-122.726l-46.156-33.193-.192-.139-6.05-4.349-7.1 111.687-109.126 49.731z"/><path fill="#33E3FF" d="M1599.227 458.011c-6.193-5.901-32.26-23.432-32.26-23.432a89.37 89.37 0 0 1 2.122 5.235c15.96 43.123 4.178 106.142 2.463 109.162-15.069 26.531-97.039 53.239-102.455 51.97l17.197 15.416c27.382 2.193 90.182-24.41 102.765-40.754 10.975-14.252 13.347-94.227 10.168-117.597z"/></g><path fill="url(#bf)" d="M542.287-73.808a20.443 20.443 0 0 0-21.744-1.686l-66.346 34.981c-4.69 2.473-5.503 8.833-1.52 12.333 4.619 4.057 18.803 15.086 20.93 16.441 2.539 1.618 3.641 4.492 3.329 7.164L455.999 7.558C439.513-4.27 412.084-46.23 416.293-66.078c0 0 3.246-69.461 16.083-76.429 0 0 91.517-46.369 107.436-34.95l29.674 16.915 1.147.654-.456 92.437a8.424 8.424 0 0 1-7.201 8.168c-.631.092-20.689-14.525-20.689-14.525z" transform="rotate(-6.1 6395.181 -8836.617)" style="display:block"/></g></g><path fill="#FF9500" d="M471.048-93.14c12.847-.062 20.25-10.936 20.19-24.305-.06-13.37-7.558-24.17-20.406-24.108-12.847.062-21.435 10.941-21.376 24.31.06 13.37 8.744 24.165 21.592 24.103zm-1.912 36.722c14.44-1.558 24.78-15.499 23.097-31.136-1.684-15.64-14.753-27.054-29.192-25.496-14.44 1.559-24.78 15.498-23.097 31.136 1.684 15.639 14.753 27.053 29.192 25.496z" transform="rotate(15.79 -1163.529 3735.405)" style="display:block"/><path fill="#33E3FF" d="M637.81-65.136C633.75-56 626.831-54.6 622.786-55.983c-5.465-1.15-9.63-7.729-9.02-16.257 1.234-17.26 7.984-33.01 13.266-43.535 4.773-9.512 15.718-11.975 22.54-8.794 6.779 3.161 12.82 11.1 7.698 20.625-6.02 11.194-15.4 29.672-19.46 38.808z" transform="rotate(-.487 69078.99 -115221.075)" style="display:block"/><g style="display:block"><path fill="#FFC6B7" d="M1641.525 458.075c-5.526-7.94-15.687-11.171-24.784-5.285-8.017 5.189-10.892 15.139-4.876 23.47 5.489 7.602 15.703 10.583 24.77 5.034 9.098-5.567 10.416-15.278 4.89-23.219z"/><path stroke-linecap="round" stroke="#EE9583" stroke-width="3.796" d="M1625.792 463.334c3.242 1.74 6.253 5.634 6.021 8.124" fill="none"/><path stroke-linecap="round" stroke-linejoin="round" stroke="#FFC6B7" stroke-width="12" d="M1618.487 457.039c-.058-4.122-1.42-8.383.9-12.052m20.987-1.466c-6.569-.653-14.319 6.478-14.1 10.001m24.078-2.047c-4.263.722-15.986 3.14-15.903 9.03m17.5 4.104c-4.087-2.526-10.724-.57-12.54 4.09" fill="none"/></g></g><g clip-path="url(#bn)" style="display:block" transform="matrix(-1 0 0 1 1976 -43.5)"><path fill="#58CC02" d="M303.202-41.464c15.252 94.999-16.572 140.035-80.655 155.537-84.448 20.428-144.155-35.09-168.05-85.71C36.399-9.976 30.948-67.472 30.967-82.954c-1.566-42.96 9.818-88.272 48.387-105.133 17.563-7.679 35.656-9.979 49.529-4.565 21.5 8.39 30.028 14.01 37.895 17.742 4.312 2.045 127.6 78.483 136.424 133.446zm15-4c15.252 94.999-31.572 144.035-95.655 159.537-84.448 20.428-134.794-43.146-151.05-96.71C16-165.5 158.911-178.642 166.777-174.91a21.63 21.63 0 0 0 13.856 1.61c13.79-3 29.816-12.99 52.943-23.219 29.352-12.966 71.625 3.073 71.53 42.337 0 0 4.272 53.755 13.096 108.718z" transform="rotate(-1.749 20292.965 -33600.745)" style="display:block"/><path fill="#58CC02" d="M194.4-10.921c41.197 33.255 100.112 36.257 145.734 6.363 45.621-29.893 66.603-85.246 52.867-136.495-2.857-10.667-15.283-15.388-24.539-9.323L195.78-37.227c-9.256 6.065-9.954 19.384-1.38 26.306z" transform="rotate(14.101 -1599.488 4438.007)" style="display:block"/><path fill="#58CC02" d="M198.976.515c-26.37 45.909-80.206 70.027-133.554 58.669C12.074 47.826-27.518 3.817-33.258-48.93c-1.195-10.977 8.679-19.874 19.504-17.569L188.17-23.511C198.993-21.206 204.464-9.04 198.976.515z" transform="rotate(-17.598 2544.315 -3050.983)" style="display:block"/><path stroke-linecap="round" stroke-linejoin="round" stroke="#F49000" stroke-width="35" d="M256.25 102.5 260 74.75" fill="none" transform="rotate(2.504 -12716.779 24131.028)" style="display:block"/><path stroke-linecap="round" stroke-linejoin="round" stroke="#F49000" stroke-width="35" d="m138 147-27-7.75" fill="none" transform="rotate(6.757 -4353.387 9216.2)" style="display:block"/><g mask="url(#bp)" style="display:block"><path fill="#89E219" d="M1233.165 619.42c-.67 8.584-7.038 16.035-15.88 18.316-8.841 2.28-17.958-1.177-22.61-8.389-.968-1.501-.12-3.515 1.673-3.978l33.827-7.916c1.794-.458 3.13.18 2.99 1.966zm-58.007 14.128c-2.174 8.328-9.754 14.51-18.861 15.154-9.107.644-17.474-4.409-20.782-12.35-.689-1.652.5-3.482 2.347-3.612l34.47-2.44c1.848-.13 3.278 1.514 2.826 3.248zm35.328 19.014c-1.377 8.376-8.342 15.166-17.345 16.674-9.005 1.505-17.809-2.646-21.851-10.116-.841-1.553.17-3.462 1.996-3.767l33.726-5.964c1.826-.31 3.761 1.43 3.474 3.173zm22.2-68.646c-22.263 1.549-42.358-10.345-52.311-28.78-8.175.538-14.1.919-17.768 1.164-6.515.438-11.85.803-15.998 1.093-5.404 19.55-18.046 33.503-35.489 35.02-20.55 1.789-41.38-21.872-44.142-52.004-2.085-22.749-2.47-33.992-.989-46.257 1.59-13.162 6.386-22.682 13.773-29.61.296-11.91 9.19-22.13 13.58-22.386 2.47-.145 2.369.679 2.33 14.016 4.124-17.865 12.93-23.59 16.915-26.785 4.993-3.997 10.977-6.086 11.473 2.13.247 3.907 4.238 47.118 29.034 47.666 2.341.051 3.841.033 6.787-.302 15.358-1.75 44.03-34.631 55.182-48.152 6.939-8.412 11.486-6.915 13.28-4.299 4.081 5.94 5.617 12.204 4.814 18.602l9.305-12.06c1.832-2.361 5.433-2.274 7.123.185 4.398 6.395 6.29 14.01 5.65 21.506 14.92 8.928 25.372 24.767 26.677 43.427l1.888 27.061c2.117 30.338-20.767 56.65-51.114 58.765z"/></g><g style="display:block"><path fill="#F49000" d="M1187.25 553.576c-.739-10.595-9.927-18.585-20.523-17.846-10 .697-17.785 8.957-17.892 18.98l-.159 28.976c-.128 11.939 9.959 21.446 21.869 20.615 11.265-.785 19.76-10.554 18.974-21.82l-2.269-28.905z"/><path fill="#B16900" d="M1180.464 555.648c.12-8.207-6.804-14.761-14.992-14.19-7.266.507-12.933 6.495-13.04 13.777l-.264 27.86c-.12 8.207 6.804 14.76 14.992 14.19 7.266-.507 12.933-6.494 13.04-13.778l.264-27.86z"/><path fill="#FFB8D1" d="M1180.454 566.547c-.168.008-.337.018-.505.03-12.622.88-22.141 11.826-21.26 24.449.11 1.581.38 3.115.789 4.585a13.93 13.93 0 0 0 7.687 1.674c7.266-.507 12.933-6.495 13.04-13.779l.25-16.959z"/><path fill="#FFC200" d="M1135.895 557.414c-.124.743.322 1.455 1.034 1.704l10.245 2.636 41.181-6.542c.922-.168 1.509-1.088 1.213-1.978-3.9-11.724-15.351-19.972-28.247-19.073-13.052.91-23.361 10.892-25.426 23.253z"/><path fill="#FFDE00" d="M1165.267 545.643c2.106.782 4.389-.365 5.125-2.459.737-2.094-.318-4.534-2.458-5.125-4.176-1.154-9.3-1.03-13.377.84-2.018.925-2.954 3.264-2.06 5.297.893 2.031 3.25 2.92 5.297 2.06 1.755-.736 5.366-1.396 7.473-.613z"/></g><g style="display:block"><path fill="#FFF" d="M1265.26 523.28c1.472 21.109-14.447 39.414-35.556 40.886-21.108 1.472-39.413-14.446-40.885-35.554l-1.5-21.5c-1.473-21.109 14.446-39.413 35.555-40.886 21.109-1.472 39.413 14.446 40.886 35.555l1.5 21.5zm-129.409 9.025c1.473 21.109-10.455 39.136-26.643 40.265-16.184 1.129-30.501-15.067-31.974-36.176l-1.5-21.5c-1.472-21.108 10.458-39.135 26.643-40.263 16.187-1.13 30.502 15.067 31.974 36.176l1.5 21.498z"/><path fill="#4B4B4B" d="M1101.391 532.179c.79 9.88 7.781 17.387 15.594 16.752 7.813-.624 13.51-9.154 12.71-19.045l-1.55-19.092c-12.472 6.531-20.366-10.295-11.912-16.597-.663-.272-2.565-.39-3.682-.156-9.627 1.957-13.52 11.584-12.358 23.421.945 9.47 1.198 14.717 1.198 14.717zm94.813-6.977c.37 9.916 8.694 17.656 18.61 17.286 9.906-.37 17.646-8.694 17.286-18.61l-.711-19.143c-13.485 5.424-19.166-9.489-15.037-17.06a18.312 18.312 0 0 0-3.573-.226c-1.91.073-3.745.445-5.448 1.056-9.8 4.119-11.898 15.115-11.676 21.943.223 6.827.549 14.754.549 14.754z"/><path fill="#8EDF00" d="M1102.512 467.278c-25.957 2.195-30.037 15.727-30.966 23.841-1.959 17.1 2.263-1.017 2.263-1.017 16.44-25.814 47.522-25.11 65.264 11.435 4.002-20.44-.355 1.176-2.753-13.432s-15.314-22.39-33.808-20.827zm-18.52 107.897c6.133 2.873 8.434 7.096 23.039 9.767 14.604 2.672 10.963 2.77 13.217 3.096-3.775-2.058-29.87-9.743-36.256-12.863zm139.298-113.497c-30.951.071-40.907 20.981-40.162 38.202.745 17.222.386 1.249.386 1.249 7.095-49.055 59.598-49.19 81.096-18.353-.221-8.046 3.025 21.575 1.244 6.81-1.78-14.766-20.51-27.959-42.564-27.908zm-3.536 115.18c-12.656-1.724-16.665-2.426 7.319 1.765 19.311 3.374 31.753-5.614 40.686-16.874-5.49 6.468-25.624 16.212-48.005 15.108z"/></g></g><g clip-path="url(#bz)" style="display:block" transform="matrix(-1 0 0 1 1976 -43.5)"><path fill="#FFCBA3" d="M201.62-329.463c6.881 0 12.46 5.639 12.46 12.595s-5.579 12.595-12.46 12.595c-6.882 0-12.461-5.639-12.461-12.595s5.579-12.595 12.46-12.595z" transform="rotate(.259 -105676.616 223222.396)" style="display:block"/><path fill="#FFB100" d="M216.977-322.097c-8.788-3.072-14.057 1.041-16.19 5.96-2.133 4.92-.987 12.69 7.269 15.918 8.256 3.23 26.261 12.77 37.532 20.612 4.325 3.008 12.191 2.683 16.206-3.845 4.014-6.528-.139-13.335-4.199-16.567-8.21-6.535-31.829-19.007-40.618-22.078z" transform="rotate(.259 -105676.866 223333.269)" style="display:block"/><path fill="#3D3D3D" d="M178.808-309.173c0 9.562-7.753 17.314-17.315 17.314-9.562 0-17.314-7.752-17.314-17.314 0-9.562 7.752-17.315 17.314-17.315 9.562 0 17.315 7.753 17.315 17.315zm-22.881-14.555c-13.511-11.937-14.787-32.57-2.85-46.08l22.652-26.694c11.937-13.512 32.567-14.788 46.079-2.85 14.326 12.657 14.76 34.86.939 48.067l-.997.597a94.765 94.765 0 0 0-10.584 11.98l-7.422 9.987c-11.403 15.344-33.491 17.65-47.817 4.993z" transform="rotate(.259 -129971.4 229376.571)" style="display:block"/><path fill="#E89665" d="M170.119-403.653c2.087.944 3.005 3.418 2.051 5.527-.954 2.109-6.986 5.386-6.986 5.386s-1.522-6.695-.568-8.804c.954-2.108 3.417-3.052 5.503-2.109z" transform="rotate(-2.638 13454.247 -22497.24)" style="display:block"/><path fill="#FFCBA3" d="M219.585-404.105c-21.544-12.439-49.093-5.057-61.532 16.488-12.439 21.545-5.057 49.093 16.487 61.532l29.192 16.854 45.045-78.02-29.192-16.854z" transform="rotate(.259 -129968.187 229259.412)" style="display:block"/><g style="display:block"><path fill="#FFB100" d="M1222.106 204.38c-20.265 27.375-21.33 91.142 47.519 114.4l35.466-57.337 33.874-61.772c-52.73-29.312-91.135-30.039-116.859 4.71z"/><path fill="#FFF" d="M1257.7 198.918c2.086 2.077 1.839 5.708-.553 8.11-2.392 2.402-6.021 2.665-8.108.588-2.086-2.078-1.84-5.709.553-8.11 2.392-2.403 6.02-2.666 8.108-.588zm-31.229-7.87c24.03 11.366 44.078-9.46 37.344-12.806-3.964.225-9.542 2.17-14.293 3.72-9.71-1.063-18.021 3.845-23.05 9.085zm-15.323 30.733c17.625 6.936 41.53-21.552 23.032-32.595-5.044 3.04-18.599 15.104-23.032 32.595z"/><path fill="#FF9500" d="M1287.092 249.14c-19.212 32.932-27.287 63.96-17.894 69.44 9.392 5.48 32.48-16.815 51.692-49.747 19.212-32.931 27.271-64.03 17.88-69.51-9.393-5.479-32.466 16.886-51.678 49.817zm-37.52-67.183c16.83.977 38.879 8.452 55.072 16.734a7.99 7.99 0 0 0 8.158-.54c2.883-1.972 7.024-4.567 11.458-6.188-30.496-14.617-54.991-18.035-74.688-10.006zm-34.913 36.4c-10.135 27.006-5.583 67.965 34.514 91.258-3.993-14.78 8.1-46.214 13.846-59.997 1.595-3.827.018-8.238-3.653-10.167-9.965-5.236-29.508-15.244-44.707-21.094z"/></g><path fill="#FFCBA3" d="M208.585-408.855c-7.835-3.645-36.835-2.645-50.532 21.238-12.377 21.58-5.057 49.093 16.487 61.532 0 0 2.21 1.585 4.192 2.604C165-376.5 201.25-403.25 213.777-407.001c-1.277-.999-5.192-1.854-5.192-1.854z" transform="rotate(.259 -129971.15 229265.699)" style="display:block"/><g style="display:block"><path fill="#9F9F9F" d="M1188.476 210.178c-5.392 16.364-1.146 34.967 11.187 46.898 4.087-18.112-.115-38.184-11.187-46.898z"/><path fill="#B23232" d="m1215.466 197.591 1.524 3.17a5.992 5.992 0 0 1-2.817 8.002 6.014 6.014 0 0 1-8.017-2.814l-1.524-3.17a5.992 5.992 0 0 1 2.817-8.003 6.014 6.014 0 0 1 8.017 2.815z"/></g><g mask="url(#bA)" style="display:block"><path fill="#F14C4C" d="M1211.082 203.011a6.501 6.501 0 0 1 5.659 3.384 6 6 0 0 1-10.6-.397l-.235-.486a6.495 6.495 0 0 1 5.176-2.5z"/></g><g mask="url(#bB)" style="display:block"><path fill="#FFF" d="M1194.176 179.344c2.607-4.653 5.804-7.817 7.142-7.068l1.8 1.034c1.276.715.077 5.202-2.434 9.685-2.511 4.482-5.713 7.85-6.988 7.135l-1.818-1.004c-1.338-.75-.308-5.13 2.298-9.782zm-11.796 21.192c2.607-4.653 5.804-7.817 7.142-7.068l1.8 1.034c1.276.715.077 5.203-2.435 9.686-2.51 4.482-5.711 7.849-6.986 7.134l-1.818-1.004c-1.338-.75-.31-5.13 2.297-9.782z"/><path fill="#4B4B4B" d="M1184.15 198.527c1.248-2.229 2.78-3.745 3.421-3.386.024.014 1.243.62 1.266.634.611.342.036 2.493-1.167 4.64-1.202 2.147-2.736 3.76-3.347 3.417-.023-.013-1.25-.606-1.274-.619 1.979-2.446 2.595-5.034 1.1-4.686zm9.2-16.592c1.25-2.229 2.78-3.745 3.422-3.386.023.013 1.243.62 1.266.634.611.342.036 2.493-1.167 4.64s-2.737 3.76-3.348 3.418c-.023-.013-1.25-.606-1.274-.62 1.98-2.446 2.596-5.034 1.101-4.686z"/><path stroke-linecap="round" stroke-linejoin="round" stroke="#E89665" stroke-width="3" d="m-50.353 5.574 8.892 4.251-8.985 3.287m74.943-6.57L17.39 8.811l8.055 3.69" fill="none" transform="matrix(.425 -.75863 .2181 .12219 1196.03 181.476)"/></g><path fill="#FFCBA3" d="M200.754-329.058c6.921 0 12.533 5.671 12.533 12.667 0 6.997-5.612 12.668-12.533 12.668-6.921 0-12.533-5.671-12.533-12.668 0-6.996 5.612-12.667 12.533-12.667z" transform="rotate(.259 -118735.736 212660.196)" style="display:block"/><path fill="#FFB100" d="M214.202-324.902c-9.254-1.46-13.677 3.578-14.895 8.832-1.218 5.254 1.242 12.72 9.997 14.432 8.754 1.711 28.488 7.876 40.997 13.495 4.81 2.157 12.492.41 15.247-6.752 2.755-7.16-2.578-13.099-7.167-15.536-9.277-4.928-34.926-13.012-44.18-14.471z" transform="rotate(.259 -118847.109 212881.69)" style="display:block"/><path stroke-linecap="round" stroke-linejoin="round" stroke="#FF9500" stroke-width="12" d="M370.75-299.25s8.194 1.29 12 6.25" fill="none" transform="rotate(.277 -110950.819 198640.704)" style="display:block"/><path stroke-linecap="round" stroke-linejoin="round" stroke="#FF9500" stroke-width="12" d="M349-258.75s6.934 6.015 8 12.25" fill="none" transform="rotate(.224 -137577.204 246377.096)" style="display:block"/><g style="display:block"><path stroke-linecap="round" stroke-linejoin="round" stroke="#00BDFF" stroke-width="7" d="m1167.34 162.071 6.63-3.112m-1.026 13.498 5.756-2.988m-6.682 9.57c8.346-.334 12.863 8.675 20.97.22" fill="none"/><path fill="#00BDFF" d="M1119.307 190.726c-2.096.436-3.79-1.71-2.88-3.649l2.523-5.379 6.175 7.82-5.818 1.208zm-4.227-8.975c-1.748-1.237-1.335-3.94.703-4.596l5.655-1.822-1.508 9.848-4.85-3.43zm24.406 14.426c-9.818 2.14-19.511-4.085-21.65-13.902-2.14-9.818 4.085-19.51 13.902-21.65 0 0 11.612-2.441 19.898-6.043 8.286-3.602 19.904-1.105 24.512 7.825 4.607 8.929.74 19.668-7.826 24.51-8.566 4.842-28.836 9.26-28.836 9.26z"/><path fill="#FFF" d="M1138.767 188a6.173 6.173 0 0 1-7.73-4.059l-2.188-7.032a6.173 6.173 0 0 1 11.787-3.67l2.19 7.032a6.173 6.173 0 0 1-4.06 7.729z"/><path fill="#FFA3A3" d="M1133.506 178.237c.56.273.773.96.468 1.503l-.835 1.485c-.465.829-1.695.698-1.977-.208l-.696-2.234c-.282-.906.657-1.713 1.51-1.295l1.53.75z"/><path fill="#00729A" d="M1129.279 183.55a2.274 2.274 0 1 0-4.437-1.001 2.274 2.274 0 0 0 4.437 1.002zm-1.14-3.81a2.273 2.273 0 1 0-4.436-1 2.273 2.273 0 1 0 4.436 1z"/></g></g><g clip-path="url(#bJ)" style="display:block" transform="matrix(-1 0 0 1 1916 -23.5)"><g style="display:block"><path fill="#4CC5FF" d="M1602.976 792.923c3.264-5.142 10.08-6.665 15.222-3.4l19.484 12.37c5.142 3.264 6.665 10.078 3.4 15.22l-3.148 4.96c-6.563 10.015-13.776 6.9-25.926 1.352-11.481-6.16-19.007-13.871-13.193-23.746l4.161-6.756z"/><path fill="#1CB0F6" d="M1617.473 808.44c-8.593-5.152-11.35-11.993-8.54-16.748 4.398-7.441 16.962-24.598 25.412-32.612 5.628-5.337 25.67-16.39 47.196-23.814 9.51-3.278 19.876 1.771 23.157 11.281 3.28 9.51-1.772 19.877-11.28 23.157-11.68 4.03-30.683 13.88-34.337 16.168-2.69 3.102-13.505 15.095-18.954 24.346-3.516 5.97-14.894 2.874-22.654-1.779z"/><path stroke-linecap="round" stroke="#FF4B4B" stroke-width="12.767" d="M1586.995 830.762c10.044 3.249 21.217-.938 21.217-.938" fill="none"/></g><g style="display:block"><path fill="#A46648" d="m1657.522 672.526 25.042 36.723c4.083 5.283 11.676 6.254 16.959 2.17 5.282-4.082 6.254-11.674 2.17-16.957l-30.881-30.386a7.874 7.874 0 1 0-13.29 8.45z"/><path stroke-linecap="round" stroke-linejoin="round" stroke="#A46648" stroke-width="6.758" d="m1650.39 664.82 8.397 2.718m-2.973-13.343 2.398 8.08m3.315-9.15.705 9.838m5.604-6.158-1.391 5.969" fill="none"/></g><g style="display:block"><path fill="#3D3D3D" d="m1721.71 645.287 26.118-18.34c9.54-6.688 22.694-4.377 29.381 5.162l6.488 9.252c6.687 9.54 4.376 22.694-5.163 29.382l-8.274 5.8c-9.54 6.689-22.694 4.378-29.382-5.162l-19.169-26.094zm9.6-5.32-15.568 44.84-26.996-10.008c-9.835-3.912-14.637-15.058-10.724-24.894l3.796-9.54c3.911-9.834 15.057-14.635 24.892-10.722l24.6 10.324zm24.893 20.634c.947 10.543-51 15.205-51.946 4.662l-3.039-33.853c-.945-10.543 6.834-19.857 17.378-20.803l13.766-1.235c10.544-.946 19.857 6.833 20.803 17.376l3.038 33.853z"/><path fill="#A46648" d="m1733.7 714.378-36.836-13.212c-8.236-2.953-13.023-11.538-11.207-20.097l5.075-23.928a14.638 14.638 0 0 1 10.904-10.903l27.86-6.543a19.867 19.867 0 0 1 18.274 4.985l11.074 13.648a26.795 26.795 0 0 1 4.345 26.125l-7.112 19.356c-3.26 9.1-13.279 13.832-22.377 10.57z"/><path fill="#FDB02A" d="m1761.913 687.924 1.276-3.47a26.795 26.795 0 0 0-4.345-26.126l-11.074-13.648a19.867 19.867 0 0 0-18.273-4.985l-14.466 3.398c11.37 3.019 33.12 12.269 46.882 44.831zm-46.882-44.831-13.395 3.145a14.638 14.638 0 0 0-10.904 10.903l-1.748 8.238c8.46-11.638 26.047-22.286 26.047-22.286zm.744-1.421c.215.7-.287 1.359-1.015 1.432-6.534.654-13.894-3.153-15.241-10.807-.127-.72.283-1.416 1.014-1.432 9.686-.206 13.629 5.564 15.242 10.807zm-.634 1.367c-.7.216-1.4-.284-1.43-1.015-.176-4.19.6-12.232 10.806-15.242a1.106 1.106 0 0 1 1.431 1.015c.308 7.667-3.403 12.959-10.807 15.242z"/><path fill="#A46648" d="M1760.855 678.035a8.151 8.151 0 0 1-10.643 4.434 8.151 8.151 0 0 1-4.433-10.643 8.152 8.152 0 0 1 10.643-4.434 8.152 8.152 0 0 1 4.433 10.643z"/></g><g style="display:block"><path fill="#FFF" d="M1712.58 661.216c.353-3.936 3.908-7.238 7.802-7.244 3.894-.008 6.545 3.283 5.815 7.22l-1.422 7.677c-.645 3.479-3.857 6.217-7.298 6.222-3.44.006-6.395-1.53-6.083-5.007l1.185-8.868z"/><path fill="#A46648" d="M1710.405 673.426c1.68-2.59 11.711-5.841 15.87-4.963l-4.252 9.338c-6.234 1.267-11.618-4.375-11.618-4.375z"/><path stroke-linecap="round" stroke="#86401F" stroke-width="4" d="M1696.074 667.844c4.317-3.162 8.58.689 8.58.689" fill="none"/><path fill="#86401F" d="M1708.968 669.07c.1.015 1.943 3.428 1.746 4.753a2.425 2.425 0 0 1-4.797-.71c.196-1.325 2.95-4.058 3.05-4.043zm-.608 7.114-2.099.112a2.497 2.497 0 0 1-.264-4.986l2.1-.112a2.498 2.498 0 0 1 .263 4.986z"/><path fill="#A41414" d="M1723.592 679.71c-1.59 5.925-11.66 10.244-18.85 5.988-2.124-1.257-1.304-4.24 1.026-5.052 3.194-1.112 6.014-2.936 8.623-5.402 2.609-2.466 5.91-3.127 7.942-.679 1.064 1.282 1.834 3.004 1.26 5.144z"/><path stroke-linecap="round" stroke="#3D3D3D" stroke-width="6.095" d="m1720.584 660.645-.445 4.955" fill="none"/><path fill="#E64340" d="M1713.063 683.925c-1.366-2.354.214-5.822 3.528-7.745 2.174-1.26 4.553-1.544 6.319-.925.75 1.179 1.158 2.65.733 4.424-.873 3.647-4.46 5.567-6.076 6.26-1.96.102-3.677-.588-4.504-2.014z"/><path fill="#E7E7E7" d="M1718.541 677.015a5.596 5.596 0 0 1-9.3 2.086c1.859-1.014 2.884-1.649 5.2-3.887 2.317-2.238 5.912-3.127 7.944-.678.28.339.538.708.754 1.107-.344.343-1.537 2.251-4.598 1.372z"/></g><path fill="#FDB02A" d="m749.545 173.4-6.236 3.947c-11.545 7.307-26.828 3.871-34.135-7.675l-3.946-6.236c-7.229-11.421-3.83-26.538 7.59-33.766 14.99-9.487 34.832-5.027 44.319 9.963 7.228 11.421 3.829 26.539-7.592 33.767zm-2.502-9.683-33.434-7.517 4.609-20.499c2.076-9.233 11.242-15.035 20.475-12.959 9.232 2.076 15.034 11.242 12.958 20.475l-4.608 20.5z" transform="rotate(2.5 -11834.659 22816.54)" style="display:block"/><path fill="#1CB0F6" d="M740.472 155.971c10.32 11.635 9.254 29.433-2.381 39.753s-29.433 9.254-39.753-2.381-9.254-29.433 2.381-39.753 29.433-9.254 39.753 2.381z" transform="rotate(2.5 -11846.116 22816.29)" style="display:block"/><g style="display:block"><path stroke-linecap="round" stroke-linejoin="round" stroke="#A46648" stroke-width="13" d="m1757.386 727.397 5.49-24.61m3.608 24.499 13.948-13.118" fill="none"/><path fill="#A46648" d="m1725.009 726.34 12.256 21.295 30.969-23.64s-28.768-8.654-31.287-9.15c-3.055-.817-6.517-1.614-9.287.296a8.586 8.586 0 0 0-2.651 11.199zm51.677 11.439-.033-.415c-.468-5.711-2.966-10.766-6.675-14.42-4.11-4.047-9.705-6.373-15.674-5.962-11.356.782-19.14 11.088-18.162 23.02l.033.41c.98 11.932 10.38 21.37 21.736 20.585 11.357-.784 19.762-11.178 18.775-23.218z"/><path stroke-linecap="round" stroke="#86401F" stroke-width="4" d="m1741.876 731.486 12.318-6.792c3.123-1.723 7.135-.717 8.96 2.246 0 0 0 0 0 0 1.825 2.963.773 6.762-2.35 8.484l-12.318 6.79" fill="none"/></g><g style="display:block"><path fill="#1CB0F6" d="M1694.58 769.403c-8.921.686-17.505-4.726-20.468-13.598-1.107-3.315-2.537-7.305-4.377-11.379-6.11 4.796-10.303 10.894-15.747 16.688-7.528 8.011-20.125 8.403-28.137.875-8.01-7.528-8.403-20.127-.876-28.137.32-.34 8.837-8.427 17.495-16.37 17.12-15.704 26.065-21.639 35.907-20.308 5.184.7 9.874 3.313 13.162 7.27 11.058 12.865 16.977 28.23 20.475 38.701 3.496 10.466-2.154 21.785-12.621 25.282-1.594.532-3.21.853-4.812.976z"/><path stroke-linecap="round" stroke-linejoin="round" stroke="#0395DB" stroke-width="4" d="m1655.074 757.6 14.093-14.825s6.059 21.724 13.882 24.006" fill="none"/><path fill="#5EC6FF" d="M1643.75 774.305c-3.29 3.475-13.034-.407-21.764-8.67-8.731-8.262-13.142-17.778-9.853-21.254.848-.896 10.806-11.239 12.884-13.334 3.346-3.373 13.089.79 21.477 8.555 8.389 7.765 13.069 17.413 9.814 21.239-3.254 3.825-12.116 12.997-12.559 13.464z"/><path stroke-linecap="round" stroke="#33B4F7" stroke-width="4.078" d="M1617.453 745.88c4.23.955 9.681 4.138 14.715 8.93 5.035 4.79 8.484 10.08 9.646 14.257" fill="none"/><path stroke-linecap="round" stroke="#FF4B4B" stroke-width="13.049" d="M1605.558 750.038c4.991 9.036 14.198 16.192 14.198 16.192" fill="none"/></g></g><g clip-path="url(#bN)" style="display:block" transform="matrix(-1 0 0 1 1916 -23.5)"><path fill="#FFB7E3" d="M467.017-248.933s-21.285-1.263-52.276-3.165c-15.682-.962-21.741 12.598-21.142 21.885.599 9.287 9.345 23.196 24.422 18.787 30.521-8.926 62.293-17.748 62.293-17.748l-13.297-19.759z" transform="rotate(3.415 -8589.141 16392.374)" style="display:block"/><g style="display:block"><path fill="#FFB7E3" d="M1390.11 313.727c-30.844-3.691-44.307-5.366-58.788-6.614-14.482-1.248-26.053 16.634-24.374 32.536 1.69 16.014 16.44 28.657 30.885 26.038 14.468-2.622 22.178-4.172 53.128-11.164 15.254-3.447 18.206-12.759 18.436-20.26.23-7.502-3.644-18.664-19.287-20.536z"/><path fill="#FF9BDE" d="M1349.636 341.06c-2.575 12.88-13.312 21.502-23.98 19.256-10.669-2.245-17.23-14.507-14.655-27.388 2.575-12.881 13.312-21.503 23.98-19.257 10.669 2.245 17.23 14.508 14.655 27.389z"/></g><path stroke-linecap="round" stroke-linejoin="round" stroke="#FF7AD5" stroke-width="28.94" d="M333.134-229.75c4-8.5 10.274-20.34 16.387-28.71" fill="none" transform="rotate(-8.459 4612.415 -6535.621)" style="display:block"/><path stroke-linecap="round" stroke-linejoin="round" stroke="#FF86D0" stroke-width="15" d="M502.881-191.052c.376-4.651-.544-10.655-2.324-15.564" fill="none" transform="rotate(-29.203 2082.384 -1792.053)" style="display:block"/><path fill="#FFB7E3" d="M477.637-216.167c-7.613 5.833-.003.004-.006.006 0 0-18.631 14.661-50.031 23.985-8.308 2.467-15.805 6.766-15.948 15.431-.142 8.665 6.764 15.82 15.43 15.948 28.668.422 61.793-23.578 70.09-30.808 7.129-6.212 7.901-15.269 2.504-22.049-5.394-6.777-14.426-8.346-22.039-2.513z" transform="rotate(1.63 -19062.354 34333.64)" style="display:block"/><path fill="#FFB7E3" d="M457.463-227.353c-11.621 5.879-32.272 15.702-43.279 41.145-11.007 25.443 20.779 26.539 27.111 14.999 7.705-14.041 24.272-24.118 27.134-26.05 17.148-11.237 6.297-41.165-10.961-30.097" transform="rotate(1.004 -31498.915 55642.806)" style="display:block"/><path fill="#FFB3E6" d="M528.609-252.517c-1.324-2.088 4.65-9.711 4.65-9.711l14.956 10.268a12.758 12.758 0 0 0 7.223 2.241l22.195.002c4.776 0 7.827 5.094 5.572 9.305l-2.776 5.185a32.342 32.342 0 0 0-3.439 10.258c-.964 6.153-7.198 9.99-13.126 8.079l-5.291-1.706a42.078 42.078 0 0 1-26.151-24.402l-3.813-9.519z" transform="rotate(-2.678 13191.844 -20820.415)" style="display:block"/><g style="display:block"><path fill="#FFB7E3" d="M1468.666 301.732c17.997 13.728 21.456 39.445 7.728 57.443-6.648 8.715-19.5 15.598-32.635 12.85-14.076-2.943-23.39-15.066-29.584-24.96-3.699-5.906-6.186-11.162-7.54-17.856-1.353-6.694.155-14.309 4.589-19.748 14.302-17.545 39.445-21.457 57.442-7.73z"/><path fill="#FF86D0" d="M1484.536 338.912a41.1 41.1 0 0 0 .236-5.664l-7.146-15.532-19.293-21.725a40.495 40.495 0 0 0-3.855-1.246l-5.998-1.144c-.023-.003-.045-.007-.068-.009-8.015 7.518-9.237 21.242-1.914 31.593 8.617 12.18 22.087 18.763 38.038 13.727z"/><path fill="#FFB3E6" d="M1459.653 330.809a.666.666 0 0 1 .978-.04l2.777 2.769a.666.666 0 0 1 .036.906l-4.309 5.018a.666.666 0 0 1-.94.071l-2.948-2.533a.667.667 0 0 1-.072-.938l4.478-5.253zm-13.263-22.71c.356-.159.77.019.9.385l1.317 3.695a.666.666 0 0 1-.358.833l-6.046 2.678a.666.666 0 0 1-.88-.34l-1.573-3.555a.667.667 0 0 1 .338-.878l6.302-2.818z"/><path fill="#1CB0F6" d="M1456.76 288.254c27.377-2.496 40.546 20.393 33.733 39.964l-.872 2.503c-3.03 8.706-22.724 12.52-35.765-5.225-15.214-18.92-7.38-35.868 2.905-37.242z"/></g><path stroke-linecap="round" stroke-linejoin="round" stroke="#1CB0F6" stroke-width="21" d="M487.432-355.415s2.71 26.87 3.097 39.341c.39 12.647-.766 36.014-.766 36.014" fill="none" transform="rotate(.14 -231585.044 398311.601)" style="display:block"/><path stroke-linecap="round" stroke="#1CB0F6" stroke-width="21" d="M510.494-244.496s25.29 1.94 37.957 2.245c15.146.365 45.426-.238 45.426-.238" fill="none" transform="rotate(.14 -231585.044 398311.601)" style="display:block"/><path fill="#E18E70" d="M495.071-354.738c-6.063 6.951-16.614 7.671-23.566 1.608-6.952-6.064-7.672-16.615-1.609-23.566 6.064-6.952 16.615-7.673 23.567-1.609 6.952 6.064 7.671 16.615 1.608 23.567z" transform="rotate(.14 -231534.952 399973.457)" style="display:block"/><path fill="#E18E70" d="M592.492-232.902c-7.193-7.197-7.191-18.862.006-26.057 7.198-7.194 18.865-7.191 26.058.006 7.194 7.198 7.191 18.864-.007 26.058-7.198 7.194-18.862 7.19-26.057-.007z" transform="rotate(.14 -232235.472 397959.88)" style="display:block"/><path fill="#FFB3E6" d="M606.933-297.91c-9.289 35.122-45.292 56.063-80.414 46.774-35.122-9.29-56.063-45.292-46.774-80.414 9.289-35.122 45.292-56.063 80.414-46.774 35.122 9.289 56.063 45.292 46.774 80.414z" transform="rotate(2.395 -12627.608 23243.05)" style="display:block"/><g style="display:block"><path fill="#E18E70" d="M1523.589 236.64c18.912 16.27 22.33 43.361 7.633 60.513-14.696 17.152-38.144 18.896-57.057 2.628-18.912-16.27-26.127-44.392-11.43-61.544 14.696-17.151 41.942-17.866 60.854-1.597z"/><path fill="#A70000" d="M1475.02 294.419c-1.12 3.617 2.511 11.14 17.242 15.133 14.73 3.993 17.723-5.329 18.376-7.438.653-2.112 2.116-11.303-5.151-13.273-5.695-1.544-13.025 3.224-20.096 1.307-7.072-1.917-9.25.652-10.372 4.27z"/><path fill="#FFF" d="M1505.488 288.842c-2.694-.73-5.754-.048-8.979.67-3.593.8-7.392 1.648-11.118.637-3.276-.887-5.501-.813-7.059-.117 1.775 2.1 4.972 4.187 10.033 5.67 9.286 2.7 17.09.327 21.697-2.66-.569-2.048-2.309-3.586-4.574-4.2z"/><path fill="#9E4D31" d="M1485.888 275.79c.131.107-.028 6.558-1.302 8.376-1.266 1.81-4.2 1.814-5.921.402-1.722-1.412-1.879-3.546-.47-5.128 1.262-1.612 7.564-3.757 7.693-3.65zm-14.852-19.088c-.816-.127-1.33-.91-1.148-1.748.183-.839.995-1.415 1.81-1.288 5.848.914 9.252 4.26 11.071 8.051 1.79 3.728 2.05 7.871 1.743 10.592-.096.847-.847 1.503-1.679 1.465-.83-.038-1.426-.756-1.33-1.603.256-2.27.028-5.823-1.476-8.958-1.475-3.073-4.174-5.758-8.991-6.51zm39.639 26.655c.484.653 1.45.823 2.155.38.706-.444.885-1.334.4-1.987-3.69-4.969-8.557-6.924-13.122-7.298-4.494-.368-8.663.793-11.175 1.996-.759.363-1.05 1.226-.653 1.927.398.701 1.334.975 2.093.612 2.088-1 5.67-1.999 9.477-1.687 3.736.306 7.716 1.87 10.825 6.057z"/><path fill="#3B3B3B" d="M1550.656 265.948c.253-1.505-1.423-2.804-2.863-2.623-1.603.358-3.692.19-6.267-1.065-4.45-2.125-8.623-28.765-37.065-36.987-9.686-2.954-25.087-1.652-26.15 2.71-3.206 13.675 2.097 40.09 33.586 49.085 27.944 8.122 36.054-3.137 38.76-11.12z"/></g></g><g clip-path="url(#bY)" style="display:block" transform="matrix(-1 0 0 1 1916 -23.5)"><g mask="url(#bZ)" style="display:block"><g clip-path="url(#ca)"><path stroke-linecap="round" stroke-linejoin="round" stroke="#3D3D3D" stroke-width="24" d="M541.75 368c5.75 8.75 22.071 22.16 22.071 22.16s10.171 1.204 17.266-5.709" fill="none" transform="rotate(-6.001 6125.918 -8633.348)" style="display:block"/><path fill="#3D3D3D" d="M515.631 280.06c17.811 0 32.25 14.439 32.25 32.25s-14.014 31.792-31.825 31.792-33.434-13.935-33.434-31.746 15.198-32.296 33.009-32.296zm37.063 10.191c26.438-4.35 49.58 5.502 52.209 28.34 2.629 22.838-19.849 32.746-42.826 33.493-51.772 1.682-70.509-51.776-9.383-61.833z" transform="rotate(-6 6146.779 -8594.894)" style="display:block"/><path fill="#DB8D74" d="M521.5 303c-16.5 11-42 12.5-66 13.5s-53.834 22.53-51 52c2.5 26 27.5 43 54.5 43.5 30.012.556 61-2.5 100.5-24s36.5-55.5 23.5-77-45-19-61.5-8z" transform="rotate(-6 6207.043 -8631.536)" style="display:block"/><g mask="url(#cb)" style="display:block"><path fill="#FFAADE" d="M1468.486 843.802c12.187-5.889-141.545-21.056-120.62 86.501 24.057 123.663 217.48 8.157 183.98 18.872-18.24 5.835-37.063 6.126-52.224.37a52.71 52.71 0 0 1-8.738-4.253 46.815 46.815 0 0 1-7.354-5.522c-7.586-6.98-14.101-17.327-17.956-29.34-7.886-24.578 5.074-58.008 22.912-66.628zm-24.563 10.378s-110.177-10.375-96.712 74.684c13.465 85.058 144.2 37.92 144.2 37.92s-66.13-4.529-75.99-46.788c-9.684-41.504 28.502-65.816 28.502-65.816zm-33.247 26.333-3.358 6.092 11.053-1.402 2.991-6.249-10.686 1.56zm17.723-22.547s-93.112 5.285-78.152 71.081c14.96 65.797 119.856 41.101 119.856 41.101s-52.298-6.784-63.227-48.902c-9.475-36.513 21.523-63.28 21.523-63.28zm-13.6 59.343-10.334 3.153 2.727 8.444 9.888-3.846-2.282-7.751z"/><path fill="#A56641" d="M1443.923 854.18s-110.177-10.375-96.712 74.684c13.465 85.058 144.2 37.92 144.2 37.92s-66.13-4.529-75.99-46.788c-9.684-41.504 28.502-65.816 28.502-65.816z"/><path fill="#2CE69B" d="m1410.676 880.513-3.358 6.092 11.053-1.402 2.991-6.249-10.686 1.56zm17.723-22.547s-93.112 5.285-78.152 71.081c14.96 65.797 119.856 41.101 119.856 41.101s-52.298-6.784-63.227-48.902c-9.475-36.513 21.523-63.28 21.523-63.28zm-13.6 59.343-10.334 3.153 2.727 8.444 9.888-3.846-2.282-7.751z"/></g><g mask="url(#cc)" style="display:block"><path fill="#3D3D3D" d="M1472.102 805.774c-23.24 3.7-30.022 25.288-29.279 39.527.744 14.25 4.38 29.705 23.967 36.696 20.559 7.337 44.65-5.699 45.989-36.005.966-21.868-17.437-43.918-40.677-40.218z"/></g><path fill="#3D3D3D" d="M557.75 265.5c16.983 0 30.75 13.711 30.75 30.625s-13.767 30.625-30.75 30.625S527 313.039 527 296.125s13.767-30.625 30.75-30.625z" transform="rotate(-6 6133.493 -8523.843)" style="display:block"/><path fill="#DB8D74" d="M512.021 320.5c6.639 0 12.02 5.382 12.02 12.021 0 6.639-5.381 12.02-12.02 12.02-6.639 0-12.021-5.381-12.021-12.02 0-6.639 5.382-12.021 12.021-12.021z" transform="rotate(-6 6925.219 -9840.017) scale(.75)" style="display:block"/><g style="display:block"><path fill="#B82C2C" d="M1498.31 902.702a2.511 2.511 0 0 1 3.552.032l21.38 21.771c.972.99.959 2.58-.031 3.553l-.21.205c-7.002 6.877-18.253 6.774-25.129-.227-6.876-7.003-6.774-18.253.228-25.13l.21-.204z"/><path fill="#FD5050" d="M1507.829 933.145a17.69 17.69 0 0 1-9.957-5.11 17.713 17.713 0 0 1-5.091-12.376 17.65 17.65 0 0 1 9.97 5.103 17.668 17.668 0 0 1 5.078 12.383z" opacity=".8"/></g><path stroke-linecap="round" stroke-linejoin="round" stroke="#3D3D3D" stroke-width="24" d="M536.818 374.269c8.057 4.734 26.951 16.388 26.951 16.388l12.016-2.71" fill="none" transform="rotate(-6.001 6125.918 -8633.348)" style="display:block"/><g style="display:block"><path fill="#FFF" d="M1546.976 907.605s4.684-5.066 8.91-9.991c2.41-7.974 3.334-14.691 2.907-22.24-3.543 1.251-5.795 8.749-6.798 12.664l-5.019 19.567zm-3.204-29.589c-4.976-2.309-11.18.157-12.975 5.613l-4.452 13.391c10.947 2.443 16.06 9.047 16.06 9.047l4.86-16.1c1.235-3.751.401-10.267-3.493-11.95z"/><path fill="#3D3D3D" d="M1553.674 882.871c.737-2.761 2.425-4.811 3.772-4.58 1.348.232 1.844 2.658 1.107 5.42l-.464 1.739c-.736 2.761-2.425 4.811-3.773 4.58-1.347-.232-1.844-2.659-1.107-5.42l.465-1.739zm-14.279 2.216c.61-2.758 2.677-4.685 4.618-4.304 1.941.38 3.02 2.925 2.41 5.683l-.385 1.736c-.61 2.758-2.677 4.686-4.618 4.306-1.941-.381-3.02-2.926-2.41-5.683l.385-1.738z"/></g><path stroke-linecap="round" stroke-linejoin="round" stroke="#3D3D3D" stroke-width="12" d="M568.75 333.5s7.5-2 11.5 1m17.608 3.473s7.344 2.513 8.997 7.232" fill="none" transform="rotate(-13 3371.808 -3626.748)" style="display:block"/><path fill="#DB8D74" d="M571.295 372.25c4.029 0 7.295 3.217 7.295 7.186s-3.266 7.186-7.295 7.186-7.295-3.217-7.295-7.186 3.266-7.186 7.295-7.186z" transform="rotate(-6 5787.619 -8069.133) scale(1.1)" style="display:block"/></g></g><g style="display:block"><path fill="#DB8D74" d="M1426.482 950.142c-7.733 3.358-18.58 7.433-15.632 17.87 2.647 9.368 14.428 8.414 22.007 4.922 3.967 4.669 9.756 1.055 7.452-3.811-3.858-8.147-7.33-21.802-13.827-18.98z"/><path stroke-linecap="round" stroke-linejoin="round" stroke="#FFAADE" stroke-width="25" d="m1433.348 928.641-1.712 27.719" fill="none"/></g></g></g></svg>